<svg xmlns="http://www.w3.org/2000/svg" width="85.595" height="44.316"><path fill="#FFF" d="M80.294 13.996c-3.533-3.445-7.77-5.168-12.708-5.168H57.07V7.453c0-2.04-.73-3.793-2.194-5.256C53.412.732 51.658 0 49.616 0v8.828h-3.124c-4.91 0-9.13 1.723-12.665 5.168a19.472 19.472 0 0 0-1.606 1.775 19.794 19.794 0 0 0-1.566-1.73c-3.548-3.474-7.777-5.212-12.688-5.212-4.908 0-9.13 1.738-12.666 5.212C1.768 17.516 0 21.71 0 26.618v17.698h17.966c3.977 0 7.495-1.118 10.56-3.35.743-.54 1.46-1.146 2.15-1.817 3.534-3.445 5.302-7.624 5.302-12.532l-.002-.084.004-.006c0-2.928 1.02-5.434 3.06-7.52 2.04-2.085 4.524-3.128 7.453-3.128h3.125v10.647c0 4.91 1.768 9.102 5.302 12.577 3.535 3.477 7.756 5.21 12.667 5.21 4.907 0 9.137-1.733 12.686-5.21 3.548-3.476 5.323-7.667 5.323-12.577 0-4.907-1.768-9.086-5.302-12.53zm-54.897 20.14c-2.026 2.086-4.503 3.13-7.432 3.13H7.497V26.617c0-2.93 1.013-5.45 3.04-7.563 2.024-2.115 4.5-3.174 7.43-3.174 2.928 0 5.404 1.06 7.43 3.175 2.026 2.114 3.04 4.634 3.04 7.563 0 2.928-1.014 5.434-3.04 7.518zm49.612-.044c-2.03 2.115-4.513 3.173-7.448 3.173-2.934 0-5.414-1.058-7.445-3.173-2.03-2.114-3.045-4.636-3.045-7.563V15.88h10.49c2.936 0 5.417 1.044 7.447 3.13 2.028 2.085 3.045 4.59 3.045 7.52s-1.017 5.448-3.046 7.562z"/></svg>