<svg xmlns="http://www.w3.org/2000/svg" width="1022.581" height="934.683"><path fill="none" stroke="#76777A" stroke-width="2" stroke-miterlimit="10" d="M806.211 368.514l3.5-49.5 4.5 6.5v-44.5l10.5-11-13-34v-38.5s-8.5-12-16.5-18.5-18.5-15.5-18.5-15.5 5-12.5 0-24-7.5-21.5-7.5-21.5 12-32.5-3-58.5-67-46.5-67-46.5-22-13-43.5-12.5-36.5 7.5-36.5 7.5-23.5 0-33 2.5-12.5 9-12.5 9-25.5 1.5-32.5 7.5-14.5 5.5-22 11.5-21 23.5-21 23.5l-10 14.5-4 8.5s-9 10-13 12-11 6-11 6v10.5s-4.5-1-7.5-1-.5 10.5-5.5 11-15.5 6-17.5 6-13.5 17-16 23-11.5 15.5-11.5 15.5v7l-14.5 9.493v15.007l3.5-2s-3-1.5-3.5 6.5-3.5 18.5-3.5 18.5l-4.5 15.5s-3 26-3.5 32.5-10.5 62-10.5 62m21 8.5s-7.5 0-13-3.5-12.5-6.5-17-4-14 17-16.5 29-1.5 15.5-2.5 22.5 4.5 26.5 5.5 30.5-.5 16.5-3 24.5-3.5 35.5.5 42.5 15 18.5 18.5 18.5 16.5-7.5 16.5-7.5 5 24.5 6.5 37 4.5 63.5 1.5 78-12 45.5-14 50.5-25 33.5-25 33.5-7.242 2-7.121 5 7.121 42 36.121 77 100 106 171.5 107.5 58.5 4.5 89-10 50.5-52.5 54-73.5 4.5-37.5 0-44.5-12.996-12.5-12.996-12.5-3.497-31 0-46c3.496-15 6.996-21.5 12.996-35s11.375-23.255 11.375-23.255"/><path fill="none" stroke="#76777A" stroke-width="2" stroke-miterlimit="10" d="M650.711 656.514s11 0 20.5-4 25.5-13.5 35.5-19.5 37-35 46.5-56.5 16-60 17.5-75.5 7-62.5 7-62.5 1.25-4.5 3.5-5.25 5.75 3.75 5.75 7.5-1 8.75-3 13.5-4.75 13.5-4.5 15.5"/><path fill="none" stroke="#76777A" stroke-width="2" stroke-miterlimit="10" d="M666.211 645.014s-25 16.5-34.5 18-49 1.5-72-6.5-34-12-42-19-19-16-19-16"/><path fill="none" stroke="#76777A" stroke-width="2" stroke-miterlimit="10" d="M391.211 488.514s7 48.5 16.5 65.5 26.5 44 37 54.5 24.5 14.5 38.5 20 36.192 10.398 36.192 10.398m168.808-102.398s-3.418-1.164-8.684-2.941c-14.265-4.814-41.696-16.52-52.316-17.059-19.711-1-23-1.25-53.5-6.5-17.274-2.974-71.5-5-71.5-5s32.5 19 41 22 23 5 28 5.5 20.5-.5 29.5 1.5 27 7 33.5 7h23.5c6.5 0 12 .75 14.75 0s10.5-3.75 10.5-3.75m-82.5-143.25s-10 8-12.25 13.5-2.25 21.75-2.25 21.75m-6.5-16.25s-22.5 4.5-24.75 13.5-4 16 0 20.75 11.5 9.75 15.25 10.5 10.5 0 10.5 0"/><path fill="none" stroke="#76777A" stroke-width="2" stroke-miterlimit="10" d="M603.518 461.514s3.543 1 3.543 0 2.127-6.5-3.543-8.5c-5.671-2-10.868-2-15.593-1.75-4.726.25-9.214-.114-9.214-.114m41.25 21.364s9.25-1.5 15-4.5 12.25-6.833 14.5-9.917c0 0 3.5 2.306 3.75 3.861s-5.75 2.306-5.75 2.306"/><path fill="none" stroke="#76777A" stroke-width="2" stroke-miterlimit="10" d="M648.461 470.514s9.5 3.75 11.75 3.25 15.25-6.083 15-15.667c-.25-9.583-2.25-12.333-4.75-17.333s-7-12.75-7.25-15.75-.5-9.75-8-16-18.621-10.75-18.621-10.75m-160.879-45.75s11.25-11.5 36.25-13 33.5-2.25 38.5 0 9.25 5.79 9.25 5.79"/><path fill="none" stroke="#76777A" stroke-width="2" stroke-miterlimit="10" d="M513.658 343.85s-1.946 3.165-1.446 4.415 2.25 5.5 2.25 5.5-5.5-1.25-12.5-1.528-12-.972-12-.972 9.25-2.5 13.5-4 12-4 12-4 16-1.25 21.5 0 15 5.75 21.5 9.25 15.5 9.25 15.5 9.25h-12.5"/><path fill="none" stroke="#76777A" stroke-width="2" stroke-miterlimit="10" d="M514.461 353.764s5.25 1.25 8.5 1.75 9.25 1.25 11 2.25 9.25 1.25 9.25 1.25 2.25-1.25 3.25-4 0-8.351 0-8.351m125.25 24.351l16.5-6.25s20 1.5 29.5 6.25 22.5 19.5 22.5 19.5"/><path fill="none" stroke="#76777A" stroke-width="2" stroke-miterlimit="10" d="M737.211 400.014s-13.25-14-20.25-18.5-8.5-5.25-16.25-7-23 0-23 0l-7.5 3.125-8.25 1.875 11 3.75s6.5 1 9 2 14.75 5 17.625 5.25 11.875 1.75 11.875 1.75 2.25-2.777 2.75-5.389 0-5.861 0-5.861"/><path fill="none" stroke="#76777A" stroke-width="2" stroke-miterlimit="10" d="M683.428 374.021s-1.217 2.994-1.217 4.744-.25 6.5-.25 6.5m-26.75 23.749s-6.75-19.25-7.75-28-1.5-15.75-2.5-19.25-1.5-8.25-9.5-11.25-17.75 1.722-17.75 1.722-14.75 24.278-27 38.278-28.25 15.25-50.25 14.75-49.25-9.25-66.75-14.75-19.25-22.25-21.25-30-3.25-42.5-5.25-47.25-7.75-5.75-7.75-5.75-19.5 9.25-26.5 15-24.75 20.194-24.75 20.194l-10.25 10.13 7.5 14.593 7-2.667 2 11.662 3 3.216s12.25-34.878 17-45.878 4.961-15.64 4.961-15.64"/><path fill="none" stroke="#76777A" stroke-width="2" stroke-miterlimit="10" d="M662.701 420.965s6.261 15.049 34.761 20.799 52.25 8 58.25 6.75 14.25-6.954 18.5-12.477 19-37.773 19-37.773 2.75-2.5 4.75-4.25 8.25-5 9.75-12.5.5-11.25-2.25-13-39.5-18.92-51.25-23.21-42-11.29-63.5-10.79-37 1.5-42 2.25-6.25.5-11-.25-20-8-31.25-14.75-47-26-74.5-30.5-55.75-5.25-65-5.25h-21.25s-34.75 19.25-45 27.25-26.009 24.83-26.009 24.83"/><path fill="none" stroke="#76777A" stroke-width="2" stroke-miterlimit="10" d="M548.961 301.514c-23-5.25-46.5-10-62-8s-14.5 2.25-22 14-8.5 27.049-8 39.149 3.5 25.851 8.25 30.976 10.25 9.625 38.75 16.375 43 7.25 55.75 6 23-11.25 33.5-27.75 14.75-27.09 14.25-34.17-10.25-16.83-21.5-22.08-37-14.5-37-14.5zm184.25 43.79c-16-3.54-37.25-5.29-48-4.54s-22 1.574-25 6.037-5.75 20.469-5 32.841 3.25 28.622 9.5 36.372 9.75 16.5 44.25 22.5 40.75 5.75 50.25 3 17-17.25 21.5-27 8-22.25 8-30.5 1.5-15.25-14.5-23.5-41-15.21-41-15.21zm51.312 71.393s8.188.317 9.188 7.817 2.5 16.729 1.25 18.864-2 5.386-1.5 8.886.75 11.5 0 14.25-7 15-10.5 22-2.75 11.5-3 18.75 0 28 0 28 3.277 11.25-.111 17-5.389 11.5-7.889 13-15 1.501-15 1.501m-218-25.418c4 2.167 14.75 14.667 19.75 16.167s29-4.5 38.5-2 20.754 8.934 25.004 9.934 26.25-4.75 28.75-5.75m-170.254-83.184c-1.75 2-7 9.75-7 12s3.5 12.25 3.5 12.25m223.5-9.033s11.25 20.283 13.25 22.533 0 21.25 0 21.25m-270.5-164c-2.75 2.25-17.5 16-25 31.75s-13 53.25-13 53.25m44.5-62.5s-18.5 22.25-19.5 28-14.5 45.5-14.5 45.5m-53.81-114.253s-4.189 7.503-3.189 15.253-.154 14-.154 14-4.596 4.25-4.346 8-5 9-4.75 16.25-.009 12.5-.009 12.5-6.837 7.25-2.664 19.25m9.172 19.583s-.5-7.583 3.5-10.333 8-2 10.75-6-2.25-18.134 2.5-25.067 10-19.683 10-19.683"/><path fill="none" stroke="#76777A" stroke-width="2" stroke-miterlimit="10" d="M380.461 385.264s-12.75 5-13 8.75 1.25-9.494 4.75-14.372 8.25-8.128 8.25-8.128l-3.5-5.5s-11.75-13.101-16.5-13.175-11.25 13.675-13 22.425 2.5 24.75 2.5 24.75m324.338 330.994s27.551 14.006 33.481 20.506 16.931 64 4.931 93.5-62 86-130.25 89c-37.719 1.658-159.25-7.5-212.75-92s-68.5-105-71-118 2.5-17 2.5-17 7.5 8.5 10 3.5 7.5-9 13-13.5 9.26-5.597 13.377-4.5l4.117 1.097m-40.494 13.403s-4-8.5-14 0-18 23.5-31 23.5-20-13-29 0-16 7-31 7-65 10-81 11-39-1-62 7-53 22-53 22m707.57-26s44.431 17 57.431 20 39 18 51 19 53-6 60 0 21 19 27 37 10 0 10 0 3 13 27 26 26 21.637 43 29.818 39 32.182 39 32.182m-502.808-412.25s37.308-2.25 44.808-2.5 21-1.25 24.75 0 13.5 5.5 16 5.75 17.25-2.25 27.5 0 23.25 8.75 27.25 11.5 12 8.5 12 8.5"/></svg>