<svg xmlns="http://www.w3.org/2000/svg" width="1022.232" height="937.428"><path d="M805.835 367.997c.384-8.264.799-16.526 1.257-24.785l1.326-24.78.178-3.329 1.949 2.746 4.577 6.447-2.301.719-.487-44.5-.008-.684.492-.525 10.394-11.101-.399 1.986-13.209-33.92-.139-.356-.001-.401-.112-38.5.411 1.29c-.57-.784-1.179-1.605-1.788-2.395-.616-.793-1.219-1.598-1.855-2.375-.632-.781-1.242-1.582-1.892-2.346l-1.938-2.301-2.002-2.231a41.693 41.693 0 0 0-2.054-2.162c-.706-.689-1.374-1.444-2.11-2.081l-2.189-1.944-18.71-15.825-1.159-.98.549-1.438c.287-.754.594-1.694.828-2.578.249-.897.458-1.81.64-2.726.172-.918.332-1.84.43-2.768.127-.926.171-1.856.231-2.784.023-.928.051-1.856-.01-2.779-.005-.929-.157-1.836-.239-2.755l-.246-1.354a9.613 9.613 0 0 0-.302-1.339l-.354-1.325-.469-1.284-.233-.643-.282-.732-.533-1.38-1.066-2.76-1.067-2.76c-.374-.904-.655-1.887-.98-2.833l-.943-2.86c-.304-.955-.654-1.901-.911-2.864-.543-1.927-1.129-3.814-1.61-5.792l-.119-.491.172-.474c.964-2.655 1.755-5.535 2.421-8.371a95.465 95.465 0 0 0 1.589-8.647c.773-5.811 1.009-11.706.486-17.539-.528-5.823-1.749-11.609-3.967-17.023a23.535 23.535 0 0 0-.867-2.012c-.317-.658-.593-1.338-.953-1.974l-1.015-1.907-1.17-1.903c-1.599-2.426-3.368-4.747-5.367-6.918-1.986-2.167-4.076-4.253-6.306-6.193-2.209-1.961-4.528-3.802-6.895-5.582-2.365-1.78-4.804-3.468-7.271-5.111a188.996 188.996 0 0 0-7.543-4.723c-5.111-3.019-10.364-5.802-15.691-8.426-5.327-2.616-10.751-5.086-16.234-7.292l-.061-.024-.063-.037a80.16 80.16 0 0 0-4.549-2.382 97.749 97.749 0 0 0-4.687-2.157c-1.573-.697-3.176-1.324-4.777-1.947l-2.42-.89c-.811-.286-1.633-.536-2.448-.805-1.626-.558-3.294-.969-4.94-1.448-1.671-.378-3.323-.849-5.012-1.13l-2.521-.474-2.541-.34-1.268-.171-1.274-.094-2.545-.189-2.546-.019-1.271-.006c-.336-.009-.838.049-1.249.07l-5.188.362c-1.751.064-3.4.403-5.095.612-1.685.244-3.371.43-5.046.82-1.674.358-3.362.651-5.021 1.069-1.651.447-3.312.857-4.953 1.332-1.618.54-3.271.993-4.859 1.6-1.592.571-3.213 1.196-4.684 1.868l-.312.142-.355.006a302.86 302.86 0 0 0-6.083.157c-2.031.055-4.058.172-6.086.262-1.015.041-2.023.126-3.035.187l-3.032.199-3.017.279c-1.001.104-2.018.161-3.006.304l-2.975.398c-.493.07-.997.119-1.48.205l-1.43.297-1.428.294-.715.146-.179.037-.044.009a.534.534 0 0 1 .054-.015l-.012.003-.023.007-.091.028-.366.113c-.47.154-1.013.292-1.424.459-.417.17-.833.317-1.253.498l-1.261.602c-.401.232-.815.443-1.208.688-.777.497-1.54 1.019-2.228 1.622a15.336 15.336 0 0 0-1.922 1.926c-.292.341-.562.7-.808 1.061a8.525 8.525 0 0 0-.608 1.007l-.531 1.088-1.191.087a156.97 156.97 0 0 0-6.606.637c-2.206.249-4.4.566-6.586.906-2.18.361-4.353.753-6.483 1.244a56.51 56.51 0 0 0-6.238 1.746c-1.947.725-3.929 1.573-5.231 2.659l-1.374 1.106-1.576 1.098a32.48 32.48 0 0 1-3.183 1.773c-2.163 1.048-4.35 1.839-6.421 2.63-2.077.786-4.038 1.595-5.844 2.609a26.234 26.234 0 0 0-2.601 1.659l-.613.464-.308.231-.076.058.066-.055-.02.018-.04.036-.156.141-1.251 1.128c-1.754 1.487-3.108 3.057-4.629 4.584-1.47 1.64-2.976 3.267-4.413 4.964a251.879 251.879 0 0 0-4.292 5.118c-1.421 1.715-2.807 3.468-4.189 5.214l-1.03 1.315-.505.654-.4.584-1.902 2.782-7.607 11.127.209-.364-3.965 8.516-.16.344-.261.289a166.156 166.156 0 0 1-5.306 5.599c-.931.902-1.819 1.822-2.806 2.7-.487.442-.958.889-1.46 1.326l-1.587 1.287c-.476.429-1.206.852-1.841 1.263l-.493.307-.247.152c.027-.014-.071.037.058-.029l-.006.003-.013.007-.026.014-.052.028-.104.057-.831.454-3.321 1.813-6.643 3.628 1.408-2.35.005 10.5.002 3.319-3.251-.712c-.808-.177-1.686-.321-2.53-.478-.837-.106-1.706-.262-2.518-.332l-1.193-.075-.596-.042-.075-.005c-.285.016.368-.023.292-.018l-.021.002-.042.005-.169.019c-.08.007.099-.002.151-.014.081-.012.162-.032.24-.058.16-.052.312-.144.357-.163.312-.199.403-.352.438-.404.027-.048-.001.002-.032.089a6.78 6.78 0 0 0-.209.906c-.277 1.554-.35 3.483-.974 5.663-.343 1.08-.8 2.388-2.098 3.571a5.547 5.547 0 0 1-2.309 1.229c-.206.051-.406.081-.61.115l-.333.051-.673.099c-.405.078-.666.15-1.04.233-.397.115-.787.212-1.19.34-.805.25-1.621.531-2.44.83-1.642.602-3.294 1.274-4.966 1.961-1.693.686-3.314 1.395-5.267 2.05-.222.082-.552.163-.838.239l-.222.057c-.073.019-.228.041-.338.057l-.365.043-.183.016-.091.007-.046.003c-.455.043.567-.056.457-.044l-.166.037-.042.009.091-.009a1.317 1.317 0 0 0 .547-.209c.019-.01-.015.016-.021.021-.029.01-.164.136-.268.222-.493.458-1.067 1.105-1.608 1.75-2.19 2.653-4.263 5.607-6.243 8.562-1.967 2.965-3.892 6.013-5.515 9.065a29.911 29.911 0 0 0-.823 1.68l-.12.27-.107.226-.039.076-.078.151c-.436.816-.774 1.594-1.291 2.442l-1.645 2.549-1.678 2.271a102.032 102.032 0 0 1-3.527 4.323 113.115 113.115 0 0 1-3.727 4.142l.653-1.639-.051 7-.009 1.278-1.045.673-14.569 9.387.997-1.845-.11 15.007-3.134-1.819 3.514-1.974.102 3.64.112.051.033.014.058.018c.023.011.056.009.074.017.043.004.085.009.127.003a.426.426 0 0 0 .188-.054c.066-.061-.053.039-.17.226-.245.411-.51 1.103-.649 1.874-.165.756-.259 1.584-.33 2.419l-.278 2.739c-.073.885-.263 1.854-.391 2.775a51.47 51.47 0 0 1-.481 2.748 69.12 69.12 0 0 1-.548 2.703c-.199.896-.385 1.794-.609 2.682a115.891 115.891 0 0 1-1.39 5.332l-1.575 5.199-3.146 10.372.055-.273-2.838 23.685-.71 5.923-.367 3.017-.475 2.95-.951 5.9a153.903 153.903 0 0 1-1.018 5.896c-1.484 7.85-2.917 15.717-4.441 23.531a2489.322 2489.322 0 0 1-4.608 23.451l-.492-.089 3.739-23.601c1.269-7.868 2.435-15.717 3.656-23.565.618-3.917 1.1-7.881 1.657-11.82l.405-2.958.286-2.921.569-5.954 2.278-23.827.011-.115.044-.159 2.897-10.444 1.444-5.21c.443-1.698.876-3.442 1.258-5.177.382-1.738.751-3.481 1.043-5.227.157-.874.312-1.747.416-2.595.106-.869.267-1.678.33-2.595l.231-2.656c.068-.965.161-1.938.363-2.951.188-1.001.475-2.062 1.139-3.211.361-.567.821-1.207 1.697-1.691.428-.233.941-.4 1.475-.438.268-.018.535-.012.802.031.131.015.271.053.405.086.063.015.144.042.219.069l.113.042.19.084 3.607 1.603-3.506 2.038-3.485 2.026-3.108 1.806-.026-3.625-.11-15.007-.008-1.176 1.006-.669 14.43-9.6-1.055 1.951-.051-7-.007-.916.66-.723a111.339 111.339 0 0 0 3.491-3.998 97.21 97.21 0 0 0 3.29-4.154l1.525-2.126 1.291-2.031c.433-.695.822-1.588 1.235-2.373l.077-.152.038-.076.019-.038.01-.019-.06.131.153-.353c.102-.24.207-.465.312-.687.209-.453.426-.876.645-1.304 1.764-3.364 3.704-6.466 5.722-9.559 2.038-3.082 4.109-6.093 6.516-9.054.623-.745 1.236-1.472 2.064-2.258.239-.209.432-.398.779-.644l.254-.179a4.37 4.37 0 0 1 .996-.451l.208-.058.166-.038c-.097.008.94-.092.499-.051l-.003-.002-.007-.004-.014-.006a.053.053 0 0 0-.028 0c0-.002-.04.016-.003.005l.107-.032c.15-.047.264-.063.467-.14 1.485-.506 3.193-1.247 4.854-1.937 1.678-.702 3.381-1.41 5.14-2.068a57.111 57.111 0 0 1 2.704-.939c.46-.149.949-.278 1.422-.416a27.552 27.552 0 0 1 1.614-.359l1.069-.165c.047-.019.023-.015.063-.044.073-.033.35-.475.528-1.111.193-.629.326-1.428.445-2.268.121-.855.214-1.755.391-2.787.096-.522.2-1.069.426-1.736.122-.341.269-.71.534-1.145.277-.43.658-.952 1.367-1.376.254-.198 1.054-.46 1.374-.488l.169-.02.042-.004.021-.002c-.062.002.605-.036.334-.019l.095.005.761.045 1.521.099c.994.09 1.914.255 2.874.381.939.174 1.851.324 2.815.536l-3.249 2.606.005-10.5.001-1.583 1.407-.767 6.646-3.621 3.323-1.811.831-.453.272-.147.152-.103.305-.203c.413-.288.806-.462 1.272-.879l1.354-1.095 1.349-1.21c.908-.79 1.78-1.68 2.668-2.525a154.625 154.625 0 0 0 5.15-5.346l-.42.633 4.035-8.483.095-.2.114-.165 7.698-11.065 1.925-2.766.24-.346.121-.173.203-.278.53-.675 1.059-1.33c1.42-1.765 2.836-3.526 4.296-5.259a250.09 250.09 0 0 1 4.412-5.174c1.481-1.72 3.042-3.38 4.585-5.071 1.654-1.65 3.294-3.447 4.986-4.854l1.261-1.118.157-.14.165-.142.092-.068.367-.274.736-.546a30.879 30.879 0 0 1 3.093-1.938c2.125-1.169 4.343-2.051 6.472-2.838 2.132-.792 4.182-1.521 6.071-2.42a27.976 27.976 0 0 0 2.715-1.481l1.199-.811 1.261-.995 1.662-1.173c.559-.347 1.119-.595 1.682-.89.563-.309 1.125-.507 1.688-.73.562-.208 1.125-.469 1.688-.629a60.72 60.72 0 0 1 6.761-1.792c2.255-.485 4.512-.858 6.77-1.199a164.3 164.3 0 0 1 6.779-.834 161.37 161.37 0 0 1 6.819-.557l-1.722 1.174c.349-.692.628-1.109.978-1.607.335-.478.688-.93 1.064-1.358a19.26 19.26 0 0 1 2.429-2.369c.86-.729 1.793-1.353 2.744-1.938.479-.288.977-.537 1.464-.805.499-.244 1.008-.464 1.512-.695.52-.216 1.069-.405 1.603-.605.541-.199.993-.302 1.494-.458l.367-.107.093-.027.11-.031.05-.01.196-.038.787-.153 1.573-.303 1.573-.301c.521-.084 1.036-.127 1.554-.193l3.102-.353c1.035-.125 2.061-.16 3.091-.245l3.086-.217 3.08-.135c1.026-.039 2.054-.103 3.079-.122 2.052-.046 4.103-.12 6.152-.131a300.85 300.85 0 0 1 6.16-.025l-.667.148c1.7-.733 3.332-1.316 5.017-1.881 1.665-.594 3.372-1.024 5.055-1.543 1.7-.452 3.416-.837 5.122-1.258 1.712-.392 3.451-.654 5.174-.99 1.714-.364 3.481-.53 5.233-.749 1.749-.183 3.518-.497 5.24-.526l5.194-.263c.455-.015.816-.06 1.348-.05l1.329.031 2.654.071 2.638.245 1.317.124 1.307.2 2.609.404 2.582.535c1.729.323 3.409.834 5.111 1.255 1.673.52 3.368.974 5.013 1.572 1.66.554 3.298 1.168 4.932 1.789 1.625.645 3.248 1.293 4.841 2.012a98.49 98.49 0 0 1 4.747 2.225 80.31 80.31 0 0 1 4.647 2.477l-.123-.061c2.789 1.134 5.512 2.341 8.232 3.585a262.717 262.717 0 0 1 8.081 3.878c5.344 2.674 10.604 5.521 15.738 8.583a190.602 190.602 0 0 1 7.627 4.724c2.499 1.646 4.97 3.339 7.373 5.129 2.403 1.79 4.764 3.644 7.02 5.627a82.173 82.173 0 0 1 6.524 6.235c2.069 2.183 3.962 4.585 5.671 7.109l1.197 1.887 1.116 2.02c.383.657.68 1.356 1.019 2.035.34.679.654 1.37.94 2.073 2.435 5.569 3.843 11.543 4.531 17.559.682 6.026.581 12.117-.076 18.129a97.683 97.683 0 0 1-1.43 8.961c-.632 2.978-1.347 5.873-2.349 8.844l.053-.964c.494 1.846 1.119 3.714 1.688 5.573.273.938.632 1.835.946 2.753l.972 2.739c.336.913.613 1.825 1.015 2.737l1.13 2.735 1.129 2.735.564 1.367.555 1.383.577 1.484.448 1.523c.162.506.288 1.018.383 1.537l.316 1.551c.123 1.042.312 2.083.347 3.13.089 1.047.086 2.09.081 3.135-.039 1.041-.073 2.085-.203 3.116a39.84 39.84 0 0 1-.44 3.083 41.393 41.393 0 0 1-.674 3.042 30.732 30.732 0 0 1-.952 3.063l-.61-2.417 9.436 7.806 4.707 3.916 2.349 1.963 2.332 1.962 2.396 2.114c.807.7 1.5 1.476 2.255 2.21a44.93 44.93 0 0 1 2.168 2.27l2.092 2.321 2.013 2.377c.673.79 1.304 1.611 1.957 2.416.653.805 1.27 1.638 1.9 2.46.631.83 1.234 1.653 1.858 2.523l.413.575-.002.715-.112 38.5-.14-.757 12.791 34.08.427 1.137-.827.849-10.605 10.899.484-1.208-.487 44.5-.044 4.062-2.257-3.344-4.423-6.553 2.127-.583-2.174 24.72a2806.284 2806.284 0 0 1-2.243 24.715l-.501-.032zm-419.254-27.233a31.711 31.711 0 0 1-7.258-.918c-.59-.167-1.194-.29-1.774-.496l-1.736-.642c-.579-.215-1.111-.548-1.67-.818l-.83-.429-.775-.459c-2.055-1.206-4.198-2.294-6.424-3.076-2.21-.789-4.563-1.284-6.769-.994-1.109.161-2.094.516-2.987 1.225-.483.361-.819.7-1.239 1.101-.394.431-.814.823-1.182 1.289-1.524 1.79-2.897 3.744-4.161 5.762a72.5 72.5 0 0 0-6.325 12.779c-.808 2.223-1.556 4.474-2.015 6.764l-.089.379-.072.448-.145.895-.289 1.79-.579 3.581-.144.895-.07.88-.142 1.76c-.081 1.184-.224 2.32-.256 3.54l-.143 3.624-.312 3.703-.143 1.758-.062.905c-.007.287.015.54.019.811l.021.802.074.867c.043.576.097 1.155.182 1.74.287 2.331.72 4.678 1.211 7.017.974 4.682 2.181 9.337 3.44 13.988l.477 1.749.239.881.119.446.06.223.045.213.008.056.017.112c.084.604.189 1.181.257 1.808l.069 2.045c.036.708-.015 1.3-.036 1.932l-.086 1.875c-.121 1.231-.223 2.468-.362 3.696-.172 1.222-.32 2.447-.512 3.667-.219 1.215-.413 2.433-.654 3.646-.274 1.209-.508 2.422-.817 3.63l-.494 1.81-.248.905-.207.805c-.342 1.223-.472 2.201-.675 3.358a69.85 69.85 0 0 0-.448 3.501c-.263 2.351-.409 4.731-.538 7.109-.214 4.761-.205 9.544.075 14.266.122 2.365.397 4.695.757 6.97.228 1.109.436 2.236.776 3.232.129.553.352.947.539 1.38.104.235.154.393.337.675.157.271.305.508.448.73 2.467 3.812 5.613 7.473 8.905 10.78 1.656 1.641 3.401 3.237 5.179 4.491.44.301.882.579 1.287.788.195.093.382.178.521.223.078.031.097.019.146.042.014.004-.01-.01-.015-.007l-.014.005c.19-.009-.273.018-.199.011l.056-.006.451-.051.225-.026c.053-.013.084-.029.127-.043.178-.066.281-.075.528-.155a21.752 21.752 0 0 0 1.542-.559c4.226-1.734 8.527-4.056 12.647-6.373l2.701-1.52.609 3.01c.871 4.305 1.671 8.612 2.5 12.919.797 4.314 1.536 8.644 2.281 12.968l.945 6.554.47 3.276.23 1.661.166 1.632c.422 4.407.727 8.797.972 13.175.242 4.382.453 8.762.619 13.145s.308 8.766.39 13.152c.098 4.386.134 8.774.113 13.167a268.226 268.226 0 0 1-.349 13.195l-.215 3.309c-.084 1.104-.223 2.214-.332 3.32a44.353 44.353 0 0 1-1.238 6.604c-1.085 4.241-2.063 8.497-3.235 12.727l-3.578 12.675-3.772 12.593c-.597 2.101-1.332 4.192-2.027 6.285l-1.052 3.139-.132.392-.065.196-.033.099-.016.049c-.017.041.015-.024-.042.105l-.376.729c-.227.484-.566.979-.865 1.467-1.223 1.937-2.495 3.672-3.792 5.461-1.3 1.77-2.609 3.528-3.932 5.275-5.307 6.975-10.748 13.829-16.24 20.652l-.146.181-.24.072c-1.308.392-2.644.9-3.848 1.533-.603.316-1.186.669-1.666 1.081-.481.401-.888.876-.993 1.31 0 .107-.011.21-.033.314l.056.493c.034.364.092.703.152 1.042.109.676.23 1.36.381 2.064.265 1.396.605 2.784.927 4.174 1.341 5.551 3.055 11.02 5.006 16.393l.722 2.02.786 1.996c.53 1.327 1.037 2.665 1.585 3.984 1.16 2.614 2.223 5.271 3.502 7.829l1.851 3.868 2.008 3.788c1.3 2.547 2.807 4.978 4.245 7.445.704 1.244 1.482 2.441 2.268 3.634l2.334 3.591c1.587 2.372 3.313 4.648 4.961 6.977 1.738 2.261 3.551 4.465 5.32 6.699a341.92 341.92 0 0 0 5.608 6.506c7.584 8.581 15.562 16.818 23.809 24.76 8.285 7.902 16.831 15.527 25.705 22.736 8.881 7.197 18.049 14.041 27.611 20.262 9.568 6.205 19.459 11.899 29.731 16.768 10.296 4.798 20.974 8.753 31.946 11.454 5.507 1.229 11.047 2.351 16.652 2.854 1.4.12 2.794.354 4.199.382l4.209.198c2.822.13 5.731.135 8.593.208 11.491.212 23.022.578 34.473.906 5.723.146 11.45.283 16.953-.101 5.534-.271 10.454-1.96 15.601-4.342a612.4 612.4 0 0 0 7.733-3.679l3.9-1.862 1.843-.879 1.904-1.009c1.261-.677 2.558-1.335 3.79-2.027l3.424-2.224c.567-.38 1.152-.716 1.708-1.13l1.658-1.271c1.099-.855 2.229-1.672 3.305-2.558 8.516-7.229 15.884-15.896 21.931-25.411 3.091-4.717 5.778-9.696 8.181-14.792 2.417-5.09 4.433-10.376 5.889-15.755.421-1.339.655-2.697.954-4.049.312-1.326.512-2.763.76-4.179.47-2.824.889-5.625 1.278-8.454.732-5.641 1.345-11.308 1.393-16.917.032-2.801-.068-5.598-.483-8.279-.093-.675-.252-1.319-.372-1.981-.144-.649-.349-1.265-.516-1.9-.246-.577-.43-1.211-.722-1.742l-.43-.803-.053-.101c-.026-.051.062.089-.014-.022l-.156-.219-.314-.438-1.251-1.755-1.297-1.508-.646-.753-.731-.734c-.491-.487-.967-.988-1.471-1.465a58.73 58.73 0 0 0-6.469-5.231l-.693-.479-.072-.757c-.438-4.595-.75-9.15-.976-13.735-.219-4.58-.335-9.168-.286-13.765-.002-1.147.036-2.299.072-3.448.025-1.15.074-2.301.152-3.452.063-1.151.127-2.302.251-3.455.109-1.151.2-2.303.385-3.455.157-1.151.309-2.303.571-3.452l.364-1.766.462-1.646 1.854-6.586.471-1.645.603-1.628 1.206-3.252 1.206-3.247 1.392-3.144c.942-2.085 1.836-4.204 2.816-6.259l2.896-6.197c.967-2.104 2.007-4.106 3.008-6.165l3.03-6.134c1.026-2.038 2.014-4.091 3.071-6.116l3.292-6.02.438.242-3.055 6.102c-.979 2.055-1.895 4.148-2.845 6.221l-2.846 6.222c-.933 2.073-1.935 4.15-2.812 6.219l-2.713 6.282c-.923 2.091-1.739 4.201-2.614 6.299l-1.286 3.151-1.082 3.2-1.082 3.195-.541 1.596-.422 1.657-1.699 6.628-.427 1.656-.286 1.593c-.225 1.081-.346 2.194-.474 3.306-.153 1.104-.218 2.229-.3 3.35-.097 1.118-.134 2.245-.173 3.372a73.358 73.358 0 0 0-.075 3.385c-.012 1.13-.025 2.26.002 3.392.049 4.525.26 9.057.574 13.583.319 4.52.729 9.06 1.254 13.536l-.766-1.236c2.529 1.671 4.816 3.465 7.047 5.445.551.498 1.078 1.027 1.617 1.541l.806.777.777.863c.514.577 1.046 1.157 1.539 1.737l1.281 1.732.319.434.16.217a2.94 2.94 0 0 1 .137.201l.076.136.606 1.087c.401.728.641 1.48.956 2.224.215.748.468 1.498.645 2.248.15.748.34 1.501.453 2.248.502 2.995.639 5.962.646 8.903.024 5.889-.53 11.682-1.199 17.442-.356 2.869-.75 5.758-1.186 8.608-.229 1.416-.404 2.832-.726 4.311-.299 1.457-.543 2.938-.964 4.351-1.472 5.733-3.504 11.257-5.943 16.58-2.426 5.327-5.145 10.523-8.287 15.465-1.492 2.521-3.225 4.888-4.88 7.306-.855 1.189-1.784 2.327-2.674 3.493-.895 1.162-1.784 2.328-2.772 3.418l-2.889 3.329c-.992 1.085-2.048 2.114-3.069 3.173l-1.545 1.578c-.513.528-1.088.996-1.629 1.496l-3.298 2.956c-1.135.945-2.329 1.825-3.492 2.74l-1.757 1.358c-.594.446-1.253.839-1.877 1.261l-3.801 2.479c-1.266.721-2.531 1.371-3.797 2.061l-1.898 1.02-2.039.994-3.867 1.875a420.975 420.975 0 0 1-7.817 3.761c-2.694 1.181-5.417 2.422-8.408 3.236-1.457.495-2.994.707-4.494 1.049l-2.262.29c-.755.102-1.509.194-2.249.223-5.967.408-11.75.248-17.511.101l-34.458-1.065c-2.882-.095-5.722-.119-8.639-.272l-4.4-.24c-1.471-.043-2.919-.293-4.38-.431-5.845-.572-11.588-1.775-17.281-3.094-11.335-2.878-22.278-7.03-32.774-12.017-10.467-5.054-20.507-10.915-30.125-17.362-9.626-6.44-18.813-13.486-27.694-20.874-8.895-7.376-17.34-15.265-25.534-23.384a441.557 441.557 0 0 1-23.497-25.389 341.783 341.783 0 0 1-5.536-6.647c-1.76-2.299-3.561-4.567-5.284-6.891-1.633-2.39-3.341-4.727-4.908-7.156l-2.302-3.676c-.774-1.222-1.541-2.446-2.232-3.717-5.742-10.026-10.742-20.49-14.556-31.395-1.937-5.439-3.632-10.967-4.955-16.598-.317-1.411-.652-2.817-.915-4.246a41.066 41.066 0 0 1-.385-2.176c-.062-.37-.121-.739-.151-1.092l-.058-.577c.017-.252.045-.507.083-.757.274-.979.913-1.598 1.513-2.111.617-.518 1.277-.904 1.946-1.252 1.347-.692 2.712-1.202 4.158-1.627l-.385.253c5.464-6.822 10.863-13.706 16.125-20.679 2.599-3.482 5.263-7.031 7.511-10.63.266-.448.555-.854.788-1.365l.367-.733c-.044.099-.003-.001-.009.009l.015-.049.031-.097.062-.193.124-.388.992-3.098c.657-2.067 1.348-4.112 1.921-6.229 1.192-4.202 2.423-8.396 3.555-12.611l3.288-12.66c1.076-4.227 1.969-8.521 2.962-12.778l.363-1.6c.055-.252.134-.566.169-.767l.114-.782c.14-1.05.342-2.07.4-3.155.082-1.072.193-2.137.252-3.215l.142-3.244c.137-4.335.146-8.689.074-13.046a479.8 479.8 0 0 0-.379-13.076c-.17-4.359-.4-8.719-.654-13.076a758.486 758.486 0 0 0-.882-13.06c-.351-4.352-.685-8.689-1.146-12.987l-.184-1.63-.24-1.586-.498-3.214-1-6.427-2.353-12.868c-.834-4.283-1.643-8.577-2.517-12.846l3.31 1.49a168.815 168.815 0 0 1-6.466 3.52c-2.191 1.123-4.385 2.218-6.781 3.154a26.4 26.4 0 0 1-1.873.662c-.328.107-.819.216-1.225.305l-.314.063-.226.024-.451.049c-.933.04-1.322-.118-1.801-.257a8.953 8.953 0 0 1-1.145-.489 17.074 17.074 0 0 1-1.801-1.109c-2.167-1.55-3.982-3.255-5.753-5.021a81.127 81.127 0 0 1-5.002-5.526c-1.583-1.927-3.085-3.892-4.465-6.084a23.164 23.164 0 0 1-.496-.817c-.148-.226-.337-.624-.477-.942-.305-.672-.629-1.361-.778-1.991-.428-1.303-.65-2.558-.901-3.819-.386-2.502-.659-4.983-.775-7.448-.28-4.935-.207-9.837.061-14.735.161-2.45.338-4.896.64-7.349.132-1.224.318-2.456.514-3.688.219-1.221.472-2.638.799-3.74l.977-3.474c.303-1.131.54-2.292.814-3.437.243-1.156.442-2.325.666-3.487.197-1.167.352-2.341.531-3.512l.385-3.519.103-1.747c.031-.575.091-1.191.068-1.691l.006-1.582c-.047-.574-.146-1.192-.217-1.786l-.015-.113-.007-.056c-.008-.053.053.262.021.103l-.053-.216-.106-.432-.219-.874-.442-1.76c-1.176-4.708-2.306-9.443-3.208-14.251-.455-2.403-.854-4.824-1.11-7.3a27.77 27.77 0 0 1-.158-1.87l-.061-.942-.006-1.012c.003-.333-.006-.685.01-1.002l.08-.903.096-.977.093-.878.368-3.518.214-3.621c.054-1.198.229-2.462.34-3.689l.19-1.852.095-.925.162-.893.649-3.568.325-1.785.163-.892.081-.446.122-.502c.543-2.446 1.373-4.784 2.261-7.084 1.847-4.576 4.198-8.899 6.911-12.986 1.367-2.039 2.84-4.01 4.51-5.853.398-.472.874-.897 1.311-1.344.459-.423 1.018-.91 1.515-1.251 1.028-.771 2.411-1.246 3.696-1.373 2.625-.256 5.123.395 7.419 1.285 2.313.895 4.468 2.077 6.542 3.381l.767.495.766.434c.518.275 1.005.613 1.551.84l1.641.683c.55.222 1.131.362 1.697.548a31.083 31.083 0 0 0 7.06 1.185l-.009.501z"/><path d="M650.582 655.764c1.432-.121 2.843-.319 4.257-.54l2.111-.351c.701-.128 1.396-.29 2.092-.433 1.398-.26 2.761-.665 4.132-1.004 1.359-.383 2.685-.867 4.019-1.293l1.936-.799.966-.396.433-.179.478-.251 3.82-2.009 3.832-1.978 3.688-2.146c2.447-1.464 4.936-2.766 7.38-4.291 2.459-1.471 4.898-2.975 7.371-4.419l7.357-4.467.919-.559.808-.552c.58-.407 1.226-.807 1.711-1.227l1.575-1.222c.528-.422 1.063-.899 1.596-1.347 1.076-.89 2.11-1.854 3.149-2.811 1.058-.932 2.078-1.921 3.111-2.892 1.042-.962 2.038-1.979 3.048-2.979a111.674 111.674 0 0 0 3.024-3.016c3.982-4.074 7.914-8.232 11.604-12.601.95-1.071 1.824-2.2 2.731-3.306.904-1.108 1.807-2.219 2.657-3.367 1.737-2.273 3.374-4.615 4.987-6.977l2.266-3.636c.767-1.207 1.416-2.477 2.125-3.714.714-1.238 1.28-2.543 1.899-3.824.291-.642.64-1.285.884-1.926l.813-1.997c.557-1.331 1.028-2.678 1.485-4.022.474-1.34.939-2.683 1.348-4.058.846-2.73 1.568-5.501 2.305-8.264 1.407-5.547 2.588-11.151 3.659-16.774 1.064-5.624 2.016-11.269 2.936-16.913.892-5.648 1.737-11.308 2.379-16.969l1.733-17.106 1.882-17.145 2.099-17.12 2.268-17.103.031-.239.035-.107a16.971 16.971 0 0 1 1.34-3.115c.291-.505.596-1.007 1.009-1.51.407-.497.875-1.008 1.587-1.445.162-.111.351-.211.565-.298l.31-.128.078-.03.039-.015c-.227.058.331-.088.277-.073l.012-.002.091-.014c.142-.02.193-.038.41-.058a5.18 5.18 0 0 1 .948.03c.309.042.441.108.668.171.214.062.4.138.56.226l.5.262.424.292c1.091.799 1.813 1.727 2.425 2.706a12.04 12.04 0 0 1 1.376 3.149c.148.564.258 1.146.317 1.747.019.305.023.615.03.92l-.005.121-.002.023-.004.045-.009.092-.018.183-.035.366-.141 1.463c-.038.483-.089.974-.209 1.5-.204 1.027-.401 2.064-.644 3.066l-.893 2.906c-.288.969-.741 1.882-1.104 2.821-.376.95-.766 1.815-1.186 2.712-.415.893-.763 1.772-1.149 2.663-.722 1.804-1.434 3.621-2.051 5.465-.324.92-.603 1.846-.891 2.774-.261.93-.511 1.869-.564 2.778l-.496.062c-.078-1.058.071-2.045.217-3.029.165-.978.354-1.954.59-2.911.438-1.929.969-3.829 1.516-5.731.301-.944.581-1.921.902-2.844.322-.916.637-1.877.916-2.774.268-.914.627-1.796.82-2.727l.612-2.774c.146-.916.227-1.821.36-2.722.08-.435.099-.921.104-1.417l.042-1.469.018-.637-.059-.545a8.013 8.013 0 0 0-.288-1.125 8.569 8.569 0 0 0-1.123-2.148c-.464-.651-1.039-1.242-1.557-1.566l-.186-.117-.159-.063c-.056-.033-.097-.043-.123-.038-.01.005-.105-.034-.041-.011a.284.284 0 0 0 .216-.024c-.025-.007-.214.042-.312.06l-.09.019-.011.002c-.062.016.489-.126.256-.065l-.003.004-.007.007a.096.096 0 0 1-.025.021c-.015.002-.041.017-.076.054-.274.176-.75.837-1.088 1.542-.345.706-.669 1.59-.858 2.324l.066-.346-1.572 17.177-1.739 17.159-1.958 17.136-1.054 8.561-.519 4.282c-.164 1.453-.378 2.886-.574 4.325a329.5 329.5 0 0 1-2.922 17.111c-1.115 5.672-2.372 11.314-3.833 16.907a360.643 360.643 0 0 1-4.766 16.67c-.905 2.747-1.796 5.495-2.811 8.206a88.19 88.19 0 0 1-1.507 4.078l-.783 2.032-.845 1.985-.832 1.991c-.277.698-.625 1.318-.935 1.981-.646 1.301-1.241 2.629-1.978 3.876-.708 1.262-1.347 2.568-2.104 3.8l-2.24 3.717-2.329 3.658c-.77 1.226-1.613 2.397-2.417 3.6a105.627 105.627 0 0 1-2.461 3.572c-.838 1.178-1.658 2.373-2.529 3.526a199.46 199.46 0 0 1-10.786 13.627 123.598 123.598 0 0 1-5.889 6.427c-2.021 2.099-4.119 4.126-6.359 6.046-.564.482-1.099.967-1.688 1.446l-1.825 1.43c-.621.502-1.211.844-1.813 1.253l-.988.643-.933.544-7.465 4.352c-5.041 2.811-10.049 5.643-15.286 8.243l-3.893 1.967-3.941 1.752-3.962 1.707-.495.214c-.272.104-.38.128-.578.195l-1.06.344-2.113.683c-1.435.339-2.866.687-4.306.95-1.449.209-2.881.504-4.338.604a54.882 54.882 0 0 1-8.7.249l-.007-.502z"/><path d="M666.222 644.723l-1.591 1.33a120.872 120.872 0 0 1-4.63 3.573 107.1 107.1 0 0 1-3.392 2.427 104.834 104.834 0 0 1-4.082 2.741 119.938 119.938 0 0 1-10.225 5.99c-.976.495-2.003.962-3.034 1.458-1.075.449-2.129.946-3.297 1.358l-1.772.612-1.969.457-.249.056a1.726 1.726 0 0 1-.126.021l-.056.007-.111.014-.447.049-.9.099a23.96 23.96 0 0 1-1.889.139c-5.109.295-10.276-.046-15.68-.473-5.384-.438-10.918-.914-16.55-1.294-5.629-.434-11.356-.789-17.107-1.302-5.74-.575-11.511-1.353-17.086-2.889-1.381-.396-2.811-.77-4.129-1.211l-3.962-1.276c-2.627-.83-5.219-1.715-7.772-2.576-5.11-1.702-10.003-3.587-14.578-5.635-4.566-2.102-8.777-4.527-12.371-7.253l-2.512-2.166c-.771-.664-1.496-1.369-2.218-2.026-1.443-1.319-2.776-2.614-4.046-3.811a375.58 375.58 0 0 1-6.492-6.298c-3.568-3.528-5.526-5.641-5.527-5.641l.323-.381s2.416 1.571 6.501 4.488a370.942 370.942 0 0 1 7.313 5.327c1.396 1.049 2.898 2.142 4.445 3.34.783.59 1.559 1.217 2.404 1.817l2.426 1.739c3.413 2.233 7.438 4.184 11.862 6.051 4.462 1.812 9.243 3.656 14.231 5.559l7.614 2.886 3.895 1.471c1.303.514 2.577.89 3.873 1.363a175.978 175.978 0 0 0 16.224 4.416c5.557 1.198 11.208 2.053 16.803 2.487 5.592.492 11.135.429 16.47.153 5.315-.298 10.522-.769 15.214-1.229.581-.074 1.141-.104 1.754-.202l.896-.123.446-.062.111-.014.056-.007c.034-.004-.091.011-.016-.001l.188-.045 1.491-.348c.516-.179 1.033-.332 1.545-.496 1.023-.321 2.045-.765 3.04-1.142.993-.441 1.974-.848 2.925-1.294 3.839-1.716 7.311-3.503 10.41-5.052 3.097-1.577 5.798-2.951 8.021-4.084l5.2-2.613 1.857-.905.278.421z"/><path d="M391.332 487.978l.609 2.349 1.649 6.641 2.475 10.311c.963 3.975 1.998 8.463 3.223 13.327 1.133 4.888 2.607 10.105 4.041 15.634l1.141 4.183 1.248 4.247c.443 1.422.946 2.826 1.425 4.271.537 1.402 1.138 2.787 1.752 4.188 2.808 5.666 5.845 11.408 9.385 16.994l2.664 4.202c.912 1.393 1.873 2.758 2.81 4.143l2.891 4.108 3.028 4.019c4.015 5.375 8.317 10.502 12.506 15.468l3.295 3.475.771.814.909.822c.606.552 1.213 1.108 1.794 1.546a53.528 53.528 0 0 0 7.529 5.124c5.29 2.956 10.797 5.239 16.122 7.372l7.804 3.136 3.673 1.533 3.59 1.423 1.735.704 1.687.616 3.263 1.192 6.124 2.132 10.055 3.334 8.801 2.884-.107.488-2.409-.322a185.451 185.451 0 0 1-6.775-1.102 224.586 224.586 0 0 1-10.457-2.126c-2.005-.495-4.147-.945-6.396-1.569l-3.47-.966-1.8-.503-1.783-.574-3.666-1.215-3.81-1.339a531.173 531.173 0 0 1-7.946-2.823c-5.458-2.002-11.264-4.39-16.874-7.799-2.816-1.714-5.504-3.642-8.112-5.972-.685-.578-1.253-1.148-1.831-1.72l-.874-.859-.104-.103-.052-.06-.104-.12-.208-.239-.417-.479-3.338-3.858c-4.156-5.312-7.897-10.98-11.384-16.771l-2.645-4.319-2.579-4.341-5.204-8.557c-3.451-5.659-6.98-11.174-10.398-16.474-.826-1.4-1.646-2.806-2.383-4.223-.661-1.434-1.386-2.844-1.979-4.273l-1.688-4.262-1.415-4.221c-1.751-5.583-2.926-10.973-3.978-15.934-.98-4.98-1.785-9.556-2.35-13.634a154.561 154.561 0 0 1-.756-5.715 149.67 149.67 0 0 1-.535-4.865c-.296-2.939-.453-5.26-.551-6.841l-.115-2.431.494-.071zm296.672 48.272c-3.826-1.046-7.642-2.093-11.444-3.235a405.506 405.506 0 0 1-11.321-3.688l-11.232-3.818a551.811 551.811 0 0 0-11.229-3.664c-3.741-1.168-7.517-2.252-11.253-3.021a70.677 70.677 0 0 0-2.768-.477c-.886-.076-1.764-.192-2.791-.222l-5.93-.29c-1.978-.11-3.949-.159-5.933-.322l-5.983-.573c-4.011-.275-7.918-1.051-11.858-1.641-3.944-.61-7.828-1.39-11.715-2.169l-11.618-2.314c-3.907-.636-7.812-1.342-11.713-1.757l-5.868-.661c-1.965-.187-3.935-.376-5.905-.522-3.94-.312-7.881-.651-11.833-.833-3.948-.226-7.896-.453-11.851-.577l-5.93-.221-5.933-.13-11.863-.211.754-2.59 10.359 5.57 10.398 5.481a979.9 979.9 0 0 0 10.414 5.388l5.229 2.542c.876.457 1.725.744 2.586 1.123l1.286.539.643.27.16.067c-.132-.044-.012-.005-.029-.011l.044.014.088.026.353.106 2.819.85 2.732.669c.894.233 1.847.42 2.79.613.946.187 1.88.405 2.836.564 3.798.707 7.643 1.275 11.483 1.761.958.109 1.926.243 2.874.33l1.429.146 1.371.073c1.972.094 3.7.068 5.725.077 3.916.006 7.887-.029 11.891.195l3.008.187 3.035.317c1.003.072 2.045.303 3.07.475 1.02.173 2.087.372 3.009.619 3.812.905 7.67 1.92 11.44 2.91 3.786.973 7.574 1.954 11.352 2.775l2.828.619 2.807.509c.477.103.922.144 1.365.183l1.34.135c.43.061.922.072 1.417.078l1.473.033 11.775.313c3.933.117 7.835.205 11.791.407 1.996.127 3.968.274 5.909.447 1.932.142 3.903.332 5.682.121.208-.034.466-.051.635-.097l.705-.209 1.412-.418 2.823-.835c1.894-.536 3.724-1.167 5.601-1.749l.18.467c-1.808.77-3.608 1.641-5.443 2.334l-2.746 1.076-1.373.538-.687.269c-.297.106-.533.135-.805.205-2.101.429-4.083.377-6.065.41l-5.858-.01-23.535.659-1.473.033c-.485.015-.976.027-1.522-.014-1.045-.073-2.169-.066-3.155-.221l-3.011-.406c-.992-.155-1.966-.338-2.948-.515-3.921-.72-7.766-1.585-11.613-2.439l-11.452-2.623c-.981-.243-1.847-.378-2.766-.517-.913-.134-1.794-.325-2.753-.376l-2.825-.246-2.872-.126c-3.838-.155-7.721-.184-11.655-.185-1.9-.009-4.1 0-6.048-.103l-1.568-.093-1.497-.183c-1.003-.114-1.978-.271-2.967-.405-3.937-.583-7.849-1.247-11.753-2.061-.977-.186-1.95-.435-2.925-.648-.975-.222-1.944-.433-2.945-.715l-2.968-.803-2.8-.91-.351-.113-.248-.082-.177-.078-.711-.312-1.418-.625c-.928-.428-1.931-.811-2.786-1.282l-5.298-2.734c-3.45-1.917-6.93-3.785-10.314-5.792-6.821-3.938-13.519-8.05-20.209-12.192l-4.8-2.971 5.554.381 23.711 1.626 23.712 1.515c1.977.146 3.955.226 5.935.349l5.954.436c3.995.182 7.921.646 11.861 1.039l11.804 1.575 5.874.811c1.958.299 3.913.457 5.864.719 3.9.481 7.805 1.031 11.694 1.316l5.837.522 5.918.38 5.924.38c.952.04 2.037.181 3.12.3 1.043.166 2.058.37 3.073.576 3.999.923 7.796 2.185 11.57 3.489 3.773 1.301 7.487 2.729 11.176 4.191a543.055 543.055 0 0 1 11.013 4.481l10.956 4.528 11.031 4.42-.162.478zm-87.512-142.541s-.238.701-.801 1.72c-.544 1.04-1.434 2.369-2.62 3.789-.608.696-1.248 1.458-2.053 2.128-.802.676-1.826 1.214-2.844 1.851-1.016.628-1.951 1.436-2.526 2.474-.317.506-.521 1.059-.663 1.618-.074.501-.187 1.28-.126 1.822l.12 1.8c.008.598.077 1.226.047 1.816l-.018 3.542c.009 2.306-.377 4.445-.789 6.295-.215.923-.44 1.773-.675 2.527a28.146 28.146 0 0 1-.688 1.958c-.418 1.088-.772 1.715-.772 1.715h-.5s-.354-.633-.735-1.749a23.432 23.432 0 0 1-1.089-4.643c-.246-1.926-.387-4.19.057-6.588.215-1.199.5-2.435.824-3.691.344-1.277.873-2.464 1.594-3.761.334-.688.676-1.091 1.032-1.765l1.091-1.686a20.51 20.51 0 0 0 1.776-3.391c.506-1.168 1.015-2.323 1.726-3.196a8.188 8.188 0 0 1 1.119-1.186 16.49 16.49 0 0 1 1.167-.976c1.557-1.18 3.039-1.924 4.171-2.315 1.115-.412 1.86-.498 1.86-.498l.315.39zm-21.108 19.05s-1.141.631-3.13 1.571c-1.979.971-4.827 2.201-8.125 3.714-1.653.743-3.396 1.605-5.207 2.475-.906.44-1.846.857-2.767 1.343-.931.474-1.854 1.001-2.675 1.661-.813.66-1.545 1.46-1.948 2.429-.417 1.042-.728 2.294-1.01 3.464-.561 2.381-.857 4.878-.792 7.303.057 2.421.497 4.701 1.28 6.444a7.747 7.747 0 0 0 1.611 2.232l1.29 1.257c.423.409.821.694 1.223 1.044.76.667 1.684 1.324 2.489 1.994.409.337.851.627 1.262.944.415.31.807.653 1.229.923.824.575 1.614 1.179 2.405 1.66.786.543 1.538.959 2.267 1.368.376.243.672.315 1.007.489l.243.114.122.058.061.029c-.04-.006.111.023-.087-.011l.021.005.04.01.633.159c.877.233 1.506.349 2.194.5l2.05.33 1.785.253c2.173.289 3.451.497 3.451.496l.055.497-.88.311c-.577.186-1.426.447-2.526.703-1.102.26-2.446.526-4.056.688-.832.042-1.829.142-2.64.078l-.652-.022-.042-.001-.021-.001-.126-.021-.098-.019-.196-.038-.397-.079c-.512-.12-1.138-.196-1.6-.385l-1.512-.54c-.514-.19-.971-.438-1.474-.664-1.012-.443-1.948-1.022-2.941-1.595a37.25 37.25 0 0 1-2.875-1.996c-.925-.778-1.859-1.496-2.775-2.474-.445-.46-.954-.938-1.349-1.395l-1.151-1.384c-.962-1.189-1.742-2.518-2.183-3.971-.444-1.44-.566-2.907-.511-4.302.083-1.4.354-2.718.653-4 .666-2.543 1.456-4.939 2.042-7.344.319-1.217.533-2.354.791-3.627.306-1.343.912-2.582 1.644-3.674 1.471-2.197 3.37-3.881 5.311-5.086 1.949-1.216 3.95-1.965 5.786-2.591 3.698-1.208 6.887-1.664 9.138-1.804 2.248-.158 3.562-.011 3.562-.011l.101.489z"/><path d="M603.458 460.773l.478-.137 1.26-.314c.253-.075.527-.146.75-.248.113-.043.203-.105.215-.158a.11.11 0 0 0-.032-.03c-.008-.003-.007-.006-.021-.007a.594.594 0 0 0-.099.015.704.704 0 0 0-.209.092 1.01 1.01 0 0 0-.354.346c-.096.134-.194.32-.221.512a1.153 1.153 0 0 0-.013.142c.002-.049-.004.159.005-.101l-.001-.009-.003-.018-.009-.073-.018-.15.002-.236.009-.729c-.015-.391-.002-.778-.033-1.143-.023-.744-.156-1.406-.24-2-.103-.567-.126-1.314-.699-2.134-.152-.185-.286-.413-.495-.569-.186-.163-.442-.336-.608-.47a8.895 8.895 0 0 0-1.669-.657c-1.158-.307-2.327-.35-3.56-.177a26.84 26.84 0 0 0-1.799.254c-.588.067-1.167.141-1.742.187-1.142.06-2.268.196-3.36.305-.55.064-1.082.087-1.618.118l-.794.023-.896-.016c-1.052-.086-2.047-.211-2.966-.378s-1.762-.363-2.509-.569a14.356 14.356 0 0 1-1.971-.7c-.547-.23-.964-.445-1.245-.596l-.428-.249.041-.498.45-.202c.291-.121.714-.291 1.236-.464.526-.18 1.13-.35 1.887-.586.743-.215 1.582-.42 2.498-.599s1.908-.314 2.959-.413l.099-.007.024-.001.013-.001c.029-.001-.211.006-.104.002l.051-.005.204-.021.412-.042.842-.048a18.01 18.01 0 0 1 1.759.039c1.2.092 2.446.253 3.706.488.63.093 1.257.305 1.879.514l.923.349.905.419 1.786.799c.584.264 1.21.431 1.77.634a8.9 8.9 0 0 0 1.745.415c.697.17 1.326.252 2.025.495a6.031 6.031 0 0 1 1.985 1.064 5.153 5.153 0 0 1 1.404 1.835c.612 1.401.516 2.777.333 3.851a9.177 9.177 0 0 1-.405 1.462c-.071.18-.161.46-.214.473l-.049.054-.046.138-.022.07-.006.018-.002.009c.008-.253 0-.041 0-.083-.007.07-.016.141-.029.211a2.171 2.171 0 0 1-.299.779c-.148.21-.341.404-.541.55-.174.116-.295.155-.449.219l-.22.073-.15.023a3.224 3.224 0 0 1-.29.027 3.045 3.045 0 0 1-.788-.104 4.393 4.393 0 0 1-1.013-.419 6.63 6.63 0 0 1-1.176-.805c-.249-.219-.373-.356-.373-.356l.133-.482zm16.334 10.995c.629-.487 1.244-.851 1.872-1.227a28.144 28.144 0 0 1 1.883-.99c.629-.301 1.264-.564 1.892-.832.627-.266 1.272-.479 1.898-.713a13.098 13.098 0 0 1 1.919-.582c.643-.163 1.302-.27 1.99-.334.706-.037 1.354-.16 2.045-.254.687-.099 1.356-.253 2.012-.524 1.313-.503 2.484-1.236 3.563-2.12 1.077-.892 2.038-1.954 3.022-2.917.511-.465.967-.964 1.485-1.385.521-.425.978-.882 1.445-1.328.495-.437.87-.905 1.292-1.333l.312-.323.237-.307a6.49 6.49 0 0 1 .506-.582l1.824-1.893 1.819 1.234c.28.19.483.334.708.519l.648.54c.421.377.827.781 1.231 1.234.395.467.794.952 1.168 1.625.187.348.385.728.524 1.291.034.15.062.301.086.451l.008.056.031.311-.006.047-.013.097a2.924 2.924 0 0 1-.157.866l-.074.168a2.368 2.368 0 0 1-.349.562c-.504.589-.921.76-1.278.928a5.06 5.06 0 0 1-.994.285 7.968 7.968 0 0 1-1.734.147 11.556 11.556 0 0 1-3.244-.472l-.062-.496c.912-.583 1.813-1.099 2.643-1.598.405-.265.807-.509 1.12-.762a1.74 1.74 0 0 0 .355-.362c.07-.086.073-.209-.137-.027-.041.04-.106.123-.166.237l-.035.083a1.348 1.348 0 0 0-.101.591l-.02-.09-.01-.046-.001-.003c.051.517.014.144.025.26l-.001.003-.003.005-.004.011a.232.232 0 0 0-.015.089c-.017.088-.074.033-.166-.033-.199-.146-.493-.389-.82-.611a21.2 21.2 0 0 0-1.044-.715l-1.066-.708 3.644-.659c-.277.339-.562.674-.863.993l-.447.48-.461.378c-.613.5-1.243.998-1.88 1.374-1.272.821-2.521 1.56-3.89 2.09-1.354.544-2.785.902-4.114 1.407a16.323 16.323 0 0 0-3.752 1.896 54.81 54.81 0 0 0-1.729 1.319c-.579.472-1.169.993-1.786 1.394-.617.412-1.258.804-1.928 1.1-.671.273-1.366.476-2.068.65-.699.187-1.412.283-2.125.39-.712.106-1.435.148-2.16.161a14.733 14.733 0 0 1-2.194-.101c-.732-.085-1.487-.204-2.228-.45l-.082-.495z"/><path d="M648.426 469.782s1.755.279 4.729.856c1.477.268 3.307.65 5.237.848.457.033.974.063 1.216.007.005-.016.11-.032.031-.017l.405-.148c.248-.097.417-.192.633-.283a37.352 37.352 0 0 0 3.048-1.646c2.068-1.265 4.222-2.8 6.074-4.667l.704-.703.64-.751.335-.375.283-.402c.186-.271.4-.538.576-.821.67-1.142 1.219-2.41 1.403-3.835.283-3.158.289-6.529-.703-9.69-.199-.804-.571-1.555-.877-2.327-.388-.75-.748-1.495-1.184-2.239l-1.345-2.222-1.398-2.2c-1.876-2.898-3.896-5.759-5.491-8.921l-.595-1.208c-.199-.394-.39-.809-.561-1.263-.174-.449-.356-.863-.52-1.342a32.762 32.762 0 0 1-.394-1.673c-.208-1.714-.401-3.092-.809-4.476a20.239 20.239 0 0 0-3.801-7.132c-.4-.522-.858-1-1.291-1.485l-1.32-1.307c-1.064-.892-2.101-1.842-3.083-2.595-.981-.736-1.869-1.492-2.812-2.16-.958-.649-1.83-1.333-2.687-1.926a90.33 90.33 0 0 1-2.417-1.657l-2.085-1.386-4.001-2.639.188-.464 1.242.287a48.78 48.78 0 0 1 3.444 1.006 60.68 60.68 0 0 1 5.221 1.985c.985.442 2.037.925 3.128 1.469 1.092.55 2.244 1.231 3.445 1.91 1.167.711 2.226 1.489 3.407 2.274l.108.074.027.019.105.083.056.044.226.181.452.367c.296.253.609.49.898.766.575.555 1.189 1.087 1.728 1.725 2.263 2.419 4.077 5.698 4.86 9.298.404 1.769.554 3.695.603 5.313.056.258.097.519.125.79.083.324.213.696.315 1.046.183.7.558 1.479.812 2.231a816.213 816.213 0 0 1 3.91 9.521l.971 2.43 1.005 2.406c.706 1.601 1.354 3.268 1.838 4.96l.363 1.267.275 1.277c.214.844.364 1.696.501 2.55.162.855.314 1.707.423 2.517l.184 1.226.093.609.051.303c.022.172.017.245.025.372.188 1.84-.097 3.713-.696 5.43-.684 1.652-1.549 3.231-2.679 4.445a7.634 7.634 0 0 1-.837.906c-.291.282-.573.571-.868.841-.614.493-1.2 1.019-1.831 1.435-1.23.892-2.495 1.604-3.729 2.237-1.253.604-2.463 1.128-3.707 1.521-.344.103-.72.222-1.023.295l-.423.085c-.357.07-.537.059-.811.075-.88-.024-1.447-.176-2.029-.327-1.127-.308-2.066-.697-2.944-1.061-.869-.368-1.654-.714-2.344-1.072-2.772-1.377-4.235-2.399-4.235-2.399l.187-.468zM475.409 351.836s.176-.319.583-.873a19.33 19.33 0 0 1 1.93-2.218c.886-.907 2.051-1.907 3.462-2.966.723-.494 1.489-1.04 2.333-1.548.852-.489 1.743-1.033 2.716-1.5.977-.455 1.981-.979 3.075-1.374 1.081-.429 2.209-.854 3.411-1.14a47.255 47.255 0 0 1 1.825-.432c.62-.129 1.264-.188 1.902-.287a40.882 40.882 0 0 1 3.938-.356c.669-.03 1.336-.094 2.008-.142l2.03-.106c1.357-.081 2.711-.269 4.087-.369a96.185 96.185 0 0 0 8.255-1.194c2.751-.503 5.499-1.055 8.226-1.337 2.724-.314 5.411-.6 8.028-.812 2.62-.226 5.173-.311 7.637-.211 2.462.1 4.849.38 7.12.993.565.146 1.116.347 1.655.568.269.097.532.215.79.348l.847.423c.805.51 1.542 1.043 2.248 1.521l1.019.703.933.787c.594.505 1.133.965 1.602 1.397.926.864 1.565 1.611 2.022 2.099l.653.803-.32.384-3.475-1.617c-.555-.222-1.148-.488-1.788-.772l-.994-.438-1.159-.433c-.794-.305-1.653-.604-2.531-.972l-.021-.008c.036.018-.109-.052.075.038l-.036-.009-.072-.019-.146-.038-.291-.077a3.966 3.966 0 0 0-.605-.134l-.631-.112c-.223-.025-.45-.039-.675-.073-1.812-.226-3.955-.171-6.261-.107-2.309.073-4.786.155-7.367.149l-8 .035c-2.73.035-5.525-.178-8.317-.344-2.793-.186-5.587-.287-8.274-.033-1.354.074-2.678.321-3.974.611-1.302.259-2.553.683-3.77 1.108-.607.22-1.213.414-1.8.647-.586.237-1.16.488-1.734.704-1.153.417-2.244.91-3.329 1.301-2.167.791-4.219 1.492-6.093 2.214-.952.33-1.819.739-2.687 1.053l-2.41 1.011-2.112.938-1.787.844a74.637 74.637 0 0 0-2.509 1.257l-.891.471-.351-.356z"/><path d="M514.56 343.195a29.523 29.523 0 0 0-.573 2.546 7.876 7.876 0 0 0-.12 1.215c-.006.19.006.364.03.507.022.05.026.141.052.152a.06.06 0 0 1 .023.025l.073.179.525 1.221c.161.438.304.887.452 1.336l.409 1.309.388 1.296.595 1.993-2.414-.236c-.491-.048-.967-.123-1.476-.163l-1.5-.148c-.995-.116-2.009-.138-3.006-.23l-1.5-.114-1.501-.047-2.995-.117-3.133-.152a116.867 116.867 0 0 1-3.075-.188l-1.536-.126c-.518-.049-1.01-.076-1.546-.162a95.092 95.092 0 0 1-3.177-.513l-10.733-1.905 10.482-2.073c1.089-.215 2.175-.444 3.269-.649 1.096-.199 2.193-.397 3.27-.632 2.167-.446 4.338-.915 6.499-1.434.539-.122 1.1-.282 1.625-.435.537-.15 1.072-.307 1.604-.472 1.069-.317 2.126-.666 3.185-1.014 2.116-.695 4.202-1.479 6.286-2.271l.07-.027.152-.019 7.886-.972c1.317-.164 2.645-.274 3.971-.414 1.329-.132 2.674-.174 4.015-.255.681-.017 1.367-.006 2.051.003.688.014 1.354-.007 2.104.095l1.098.118.55.065.274.033.068.008.035.004.017.002c-.072-.019.118.028.104.024l.119.029 1.918.458c1.304.383 2.765.802 3.994 1.262 1.283.445 2.54.933 3.781 1.439 1.256.488 2.475 1.025 3.698 1.57a101.365 101.365 0 0 1 7.152 3.595l.876.483.436.247.278.161.209.13 1.673 1.044 3.321 2.128c1.103.718 2.219 1.413 3.311 2.149 2.192 1.441 4.371 3.065 6.508 4.638l4.615 3.397-5.49-.402a113.532 113.532 0 0 1-3.125-.272c-1.042-.104-2.083-.186-3.125-.311-2.083-.228-4.167-.471-6.25-.792v-.5c2.083-.321 4.167-.565 6.25-.792 1.042-.125 2.083-.206 3.125-.311 1.042-.105 2.083-.196 3.125-.272l-.875 2.995c-1.154-.604-2.317-1.186-3.456-1.805a89.43 89.43 0 0 0-3.462-1.815c-1.178-.586-2.332-1.214-3.499-1.819l-3.487-1.84-1.732-.94-1.674-.84-3.477-1.723-3.486-1.697c-1.173-.531-2.318-1.143-3.49-1.66a80.156 80.156 0 0 0-3.51-1.552c-1.202-.538-2.252-.906-3.438-1.353l-1.884-.583-1.629-.307c-.546-.135-1.196-.172-1.819-.236a72.55 72.55 0 0 1-1.884-.198c-2.563-.18-5.159-.385-7.775-.483a117.5 117.5 0 0 0-7.852-.103l.223-.045c-2.143.617-4.283 1.242-6.393 1.956-1.055.356-2.111.712-3.155 1.099a58.93 58.93 0 0 0-1.566.584l-1.556.589a215.811 215.811 0 0 0-6.277 2.49c-2.093.874-4.198 1.612-6.316 2.375l-.251-3.978a81.7 81.7 0 0 1 2.946.18c.483.039 1.019.042 1.524.076l1.539.085c1.025.065 2.049.142 3.072.233l1.536.129 1.479.143 3.151.329 1.572.176 1.556.279c1.037.193 2.071.359 3.098.609 1.028.253 2.039.482 3.084.802l-1.82 1.757-.14-1.294-.153-1.273c-.053-.408-.111-.817-.151-1.236l-.237-1.31-.015-.082-.004-.021-.002-.01-.001-.005v-.002c.009.025-.021-.06.021.056l-.018-.073-.061-.295c-.036-.201-.013-.335-.016-.503.025-.297.075-.563.143-.807.143-.488.323-.925.52-1.347.393-.841.855-1.617 1.374-2.363l.447.215z"/><path d="M514.39 353.021a11.765 11.765 0 0 1 1.966-.378c.645-.096 1.284-.107 1.901-.151a22.027 22.027 0 0 1 3.619.118c.604.064 1.153.163 1.769.251.601.11 1.194.267 1.779.477 1.172.416 2.329 1.073 3.498 1.553.587.247 1.176.46 1.777.618.606.181 1.208.279 1.844.432.323.08.62.096.977.211l.529.151.271.076.017.005c-.225-.111-.059-.03-.106-.055l.007.001.029.005.058.01.116.019c.297.036.649.128.911.092l.755-.089c.507-.061 1.166-.143 1.729-.183a19.948 19.948 0 0 1 1.783-.122c1.182-.029 2.396-.096 3.554-.15l-1.351.326c-.02-.011.192-.185.308-.296.135-.129.279-.26.407-.403.123-.147.285-.264.393-.423.105-.158.274-.275.371-.437.102-.158.232-.302.349-.456.097-.162.196-.325.309-.487l.044-.061.006-.007c.062-.197-.083.267-.067.217l.001-.003.002-.006.011-.025.02-.05.078-.2.157-.4.166-.398.081-.271c.051-.178.128-.357.201-.546l.188-.744c.145-.504.248-1.048.38-1.594.08-.273.132-.553.196-.833.053-.28.138-.565.202-.852.128-.572.291-1.16.467-1.757l.492-.088c.366.525.678 1.067.938 1.626.278.558.485 1.13.7 1.717.182.592.37 1.185.47 1.82.052.32.124.617.154.963.015.377.035.765.027 1.153l-.013.577-.042.431-.05.428-.024.214-.007.053-.003.027-.001.007v.003l-.069.224-.006.017-.042.135-.385 1.074c-.146.351-.337.68-.524 1.012-.184.335-.415.632-.645.934-.224.307-.5.562-.756.839-.273.26-.565.497-.866.732a9.09 9.09 0 0 1-1.09.684l-.732.399-.618-.073c-1.283-.151-2.508-.367-3.76-.601-.622-.109-1.249-.298-1.862-.485-.312-.094-.625-.223-.934-.34-.327-.129-.571-.216-.96-.391l-1.036-.475c-.338-.155-.536-.349-.816-.508l-.098-.063-.05-.03-.024-.015-.126-.063-.01-.006-.15-.105-.312-.212c-.194-.156-.509-.24-.764-.354-.526-.226-1.134-.332-1.714-.441a10.037 10.037 0 0 0-1.822-.065c-1.239.069-2.495.349-3.739.41a10.9 10.9 0 0 1-1.846-.061c-.597-.066-1.237-.253-1.836-.406a23.458 23.458 0 0 1-3.573-1.28 11.737 11.737 0 0 1-1.679-.927 11.8 11.8 0 0 1-1.608-1.189l.109-.486zm157.106 17.259c.605-.477 1.232-.897 1.858-1.321.636-.397 1.265-.811 1.908-1.187a65.096 65.096 0 0 1 3.912-2.126 79.035 79.035 0 0 1 4.014-1.855c1.355-.574 2.71-1.147 4.11-1.602l.564-.183.388.045c1.3.152 2.531.434 3.779.741 1.24.325 2.472.686 3.698 1.051 1.229.337 2.452.703 3.688.958 1.232.283 2.477.482 3.724.684 1.25.179 2.502.364 3.775.479 1.264.163 2.549.256 3.83.446 1.286.15 2.575.384 3.857.686.646.155 1.275.359 1.916.543a67.16 67.16 0 0 1 1.91.723l.119.046.06.023.015.006.091.047.026.013.213.102.425.203.851.406c.557.255 1.195.649 1.784.984.62.348 1.162.708 1.713 1.066.553.358 1.114.712 1.623 1.114a35.99 35.99 0 0 1 3.023 2.454 50.256 50.256 0 0 1 2.776 2.682c.892.923 1.754 1.87 2.579 2.849.816.987 1.641 1.961 2.394 2.999.778 1.013 1.5 2.075 2.206 3.145.69 1.086 1.366 2.176 1.946 3.349l-.375.331c-2.157-1.42-4.186-2.929-6.177-4.45l-2.961-2.289c-.99-.751-1.949-1.529-2.922-2.285l-2.882-2.277a42.237 42.237 0 0 1-1.426-1.136c-.478-.37-.952-.738-1.418-1.122l-1.407-1.115c-.47-.371-.941-.75-1.393-1.056-.479-.322-.86-.666-1.411-1l-.797-.502-.399-.251-.199-.125-.024-.016.064.033-.012-.006-.048-.025-.095-.05a51.084 51.084 0 0 1-1.522-.82c-.534-.254-1.08-.486-1.61-.768-.529-.282-1.104-.488-1.649-.766a27.235 27.235 0 0 0-1.684-.759c-2.267-.992-4.633-1.864-7.071-2.382a31.484 31.484 0 0 0-3.691-.595c-1.245-.117-2.503-.126-3.761-.11l-3.772.147c-1.245.036-2.51.065-3.711.019l.952-.138c-1.35.588-2.745 1.056-4.14 1.523a79.71 79.71 0 0 1-4.236 1.27 65.013 65.013 0 0 1-4.338.999c-.732.144-1.478.252-2.217.375-.749.097-1.497.198-2.267.241l-.176-.465z"/><path d="M736.904 399.687c-1.158-.867-2.264-1.767-3.394-2.651l-3.319-2.703c-1.084-.921-2.203-1.801-3.294-2.705-1.092-.905-2.173-1.816-3.277-2.688-1.088-.895-2.174-1.793-3.279-2.627l-1.644-1.281c-.543-.438-1.107-.773-1.657-1.166-.562-.371-1.082-.781-1.66-1.141l-1.816-1.125c-1.193-.734-2.352-1.466-3.512-2.136-.575-.369-1.163-.617-1.737-.954-.587-.294-1.185-.552-1.782-.841-1.227-.515-2.526-.97-3.847-1.434l-2.015-.658-.252-.083-.126-.041-.016-.005c.032.006-.097-.02.069.012l-.032-.008-.065-.016-.521-.127-1.041-.255c-1.406-.401-2.734-.517-4.102-.719-1.356-.197-2.8-.204-4.2-.279-1.412-.034-2.83.017-4.244.059-1.413.097-2.829.165-4.237.335-1.406.165-2.823.312-4.205.557l.27-.07c-2.447 1.167-4.864 2.409-7.29 3.627l-.019.009-.233.071-4.057 1.238-4.071 1.174.212-4.024c3.721 1.092 7.42 2.247 11.126 3.381l-.424-.104c1.702.241 3.339.472 5.042.816.855.178 1.655.275 2.598.571l1.363.399.621.185.583.209 2.266.796 2.303.784 4.641 1.565 2.315.757c.768.249 1.544.517 2.291.726l1.133.334.985.232 2.439.469 4.875.961 4.916 1.154-1.427.541c.126-.136.299-.32.443-.49.148-.177.304-.35.443-.535.297-.361.56-.74.829-1.12.235-.387.506-.774.693-1.174.098-.198.232-.398.303-.598l.242-.608.031-.077.004-.01c-.004.032.012-.074-.01.07l.001-.003.001-.005.005-.023.01-.046.038-.184.078-.368.154-.736c.044-.243.122-.496.149-.729l.076-.698c.047-.47.119-.941.133-1.439.026-.493.06-.992.056-1.485l.494-.076c.142.495.243.993.354 1.495.13.495.164 1.025.236 1.552.07.533.133 1.073.113 1.562l-.001.753-.001.377v.264l-.012.079-.002.013-.017.104-.144.839c-.044.287-.142.535-.212.807-.145.544-.369 1.028-.569 1.539-.227.486-.454.978-.715 1.446-.123.24-.264.469-.399.703-.142.238-.27.453-.451.71l-.438.623-.989-.082-9.812-.812c-.823-.066-1.65-.129-2.466-.234-.48-.065-1.001-.126-1.452-.208l-1.272-.261c-.861-.167-1.668-.372-2.492-.566-.826-.193-1.632-.419-2.439-.638-1.623-.425-3.217-.911-4.815-1.402a86.45 86.45 0 0 1-2.4-.777c-.808-.283-1.657-.549-2.408-.85l-.579-.221-.12-.045-.063-.019-.127-.037-.253-.076-1.011-.309c-.626-.234-1.463-.398-2.217-.588-1.519-.388-3.146-.693-4.7-.997l-.308-.061-.116-.044c-3.627-1.365-7.262-2.71-10.874-4.118l-7.152-2.789 7.364-1.235 4.179-.701 4.193-.637-.252.081c2.574-.865 5.157-1.707 7.709-2.623l.186-.066.085-.004 8.602-.412 4.301-.167 2.159-.062c.719-.033 1.44-.067 2.185-.042 1.476-.009 3.002-.038 4.398.111l1.07.075.535.038.621.088 2.147.319c.719.124 1.448.25 2.17.395.726.152 1.462.354 2.195.533.731.221 1.47.463 2.188.74.698.303 1.434.595 2.09.946 1.351.679 2.616 1.449 3.842 2.218l1.789 1.169c.618.415 1.221.885 1.823 1.336.588.463 1.227.901 1.77 1.386l1.638 1.458c1.111.958 2.126 1.985 3.149 3.005a76.432 76.432 0 0 1 2.983 3.13c.985 1.048 1.915 2.148 2.849 3.24.946 1.079 1.829 2.218 2.729 3.338a74.138 74.138 0 0 1 2.562 3.48l-.362.344z"/><path d="M683.534 373.612l.186.212c.108.131.26.316.398.524.146.212.287.456.399.71.109.254.188.518.215.784.015.258.042.534-.152.762-.155.224-.629.41-1.033.622-.195.108-.392.23-.521.37a.59.59 0 0 0-.169.434.778.778 0 0 0 .035.227c.026.129.065.19.114.289.111.181.249.363.416.546.324.366.686.732.806 1.087.129.355.264.705.352 1.042.2.675-.097 1.292-.446 1.818-.203.263-.386.503-.619.715-.212.212-.44.396-.664.546l-.535.349-.23.122-.5-.013-.22-.134-.508-.376a4.24 4.24 0 0 1-.621-.58c-.217-.223-.381-.473-.563-.746-.309-.544-.558-1.175-.305-1.838.113-.332.274-.673.431-1.021.146-.348.536-.695.888-1.042.181-.174.332-.349.457-.523.056-.079.102-.195.135-.243.037-.102.061-.201.075-.301.064-.404-.128-.796-.417-1.24-.292-.448-.576-.882-.596-1.257-.025-.362.167-.642.336-.896.195-.243.425-.446.676-.604a3.76 3.76 0 0 1 .781-.35c.249-.084.487-.129.655-.154.183-.018.28-.026.28-.026l.464.185zm-28.686 34.984c-1.252-3.199-2.476-6.414-3.587-9.667-.572-1.622-1.092-3.262-1.641-4.895-.531-1.638-1.017-3.294-1.527-4.943-.454-1.671-.921-3.337-1.325-5.037-.343-1.717-.71-3.486-.893-5.169l-1.354-10.189-.381-2.505-.188-1.252c-.067-.413-.174-.793-.258-1.191-.193-.801-.321-1.542-.56-2.389-.246-.841-.468-1.667-.716-2.401-.499-1.483-1.194-2.735-2.17-3.787-.991-1.038-2.249-1.863-3.638-2.539-.349-.167-.692-.341-1.065-.476l-.549-.218-.274-.109-.034-.014-.018-.007a1.36 1.36 0 0 1 .081.028l-.077-.023-.154-.046-1.231-.37-1.039-.19c-1.452-.223-3.044-.251-4.601-.104-1.567.142-3.142.475-4.688.906a29.91 29.91 0 0 0-4.455 1.638l.888-.807c-2.9 4.792-5.91 9.464-8.962 14.137-1.568 2.308-3.088 4.646-4.697 6.929-1.644 2.262-3.213 4.568-4.917 6.793l-2.545 3.345-1.276 1.669-1.364 1.615-2.728 3.228-.682.806-.776.812-1.446 1.496c-.48.499-1.094.995-1.636 1.49-.565.479-1.107 1.018-1.707 1.425-1.181.862-2.334 1.756-3.607 2.477-2.463 1.568-5.145 2.744-7.854 3.732-5.469 1.885-11.149 2.759-16.763 3.056-5.622.32-11.209.197-16.769-.026l-1.043-.041-.261-.01c-.168-.006-.195-.015-.3-.022l-.519-.042-2.075-.163-4.149-.326c-1.381-.068-2.771-.309-4.156-.512l-4.158-.606-2.079-.293-2.051-.399-4.102-.798c-2.746-.484-5.438-1.189-8.155-1.79-1.354-.317-2.717-.604-4.065-.947l-4.036-1.054-4.037-1.051-4.017-1.116a344.311 344.311 0 0 1-8.017-2.291l-8-2.326-1.998-.588-.999-.294-.125-.037-.182-.059-.246-.087-.49-.173-1.962-.694c-.652-.217-1.327-.607-1.989-.906-1.375-.589-2.553-1.431-3.793-2.201-.59-.425-1.146-.902-1.72-1.354-.589-.437-1.104-.955-1.617-1.476-2.1-2.034-3.852-4.425-5.212-6.986-1.383-2.553-2.442-5.252-3.288-7.977-.854-2.718-1.476-5.5-2.159-8.107l-.126-.489-.135-.575-.229-1.015c-.154-.674-.257-1.44-.386-2.157-.232-1.45-.413-2.812-.587-4.214-.689-5.56-1.147-11.097-1.657-16.624-.508-5.52-.951-11.056-1.624-16.476a45.736 45.736 0 0 0-.274-2.01c-.102-.659-.188-1.343-.323-1.948l-.184-.934c-.065-.294-.146-.467-.207-.709l-.047-.17-.011-.043c.021.042-.063-.154.044.083l-.058-.116-.233-.465-.117-.232c-.036-.061-.062-.082-.091-.126a3.639 3.639 0 0 1-.162-.235c-.526-.771-1.373-1.469-2.308-2.02a10.691 10.691 0 0 0-3.045-1.164l1.487-.203a338.05 338.05 0 0 0-6.902 3.486 267.189 267.189 0 0 0-6.808 3.663c-1.137.608-2.23 1.268-3.338 1.91-1.106.644-2.221 1.282-3.271 1.972-1.047.684-2.189 1.317-3.158 2.04l-1.469 1.073c-.486.354-.983.7-1.491 1.134l-12.086 9.879-12.153 9.797.181-.163-10.316 10.063.464-2.912 7.331 14.681-2.866-1.098 7.031-2.586 2.562-.942.409 2.636 1.812 11.694-.515-1.038 2.948 3.264-3.27.685c1.877-5.123 3.865-10.203 5.812-15.297 1.94-5.096 3.984-10.16 5.971-15.239a178.194 178.194 0 0 1 3.124-7.58l3.23-7.505 1.608-3.759c.513-1.257 1.125-2.497 1.557-3.768l1.316-3.821c.219-.639.343-1.3.52-1.952l.248-.982c.073-.327.109-.651.167-.979l.499.022c-.032.347-.046.704-.096 1.047l-.175 1.017c-.129.675-.208 1.367-.38 2.032l-1.068 3.997c-.366 1.333-.892 2.58-1.33 3.875l-1.376 3.849-2.77 7.7-1.388 3.827c-.464 1.275-.891 2.572-1.337 3.857-1.755 5.156-3.564 10.286-5.273 15.458l-5.173 15.494-1.011 3.03-2.259-2.345-3.051-3.167-.397-.412-.118-.626-2.188-11.63 2.97 1.694-6.968 2.75-1.891.747-.976-1.845-7.669-14.506-.846-1.6 1.311-1.312 10.184-10.197.076-.076.105-.087 12.037-9.94 12.104-9.857c.482-.412 1.049-.814 1.614-1.227l1.685-1.226c1.123-.826 2.266-1.454 3.398-2.189 1.132-.729 2.29-1.36 3.441-2.01 1.153-.646 2.299-1.312 3.465-1.914a274.352 274.352 0 0 1 6.995-3.626 338.742 338.742 0 0 1 7.085-3.444l.74-.348.748.145c.553.107.876.208 1.296.332a15.667 15.667 0 0 1 3.385 1.501c1.43.877 2.783 1.982 3.816 3.518l.4.64.185.315.113.234.226.468.057.117c.125.276.05.124.084.207l.026.082.102.328c.125.425.283.908.36 1.291l.205 1.11c.152.753.227 1.448.326 2.162.102.714.186 1.419.255 2.118.598 5.606.984 11.14 1.367 16.682.375 5.535.758 11.066 1.232 16.542.124 1.356.266 2.751.431 4.047.097.651.146 1.266.28 1.95l.196 1.022.049.255.012.064c-.003-.011.025.115-.004-.008l.029.13.118.523c.613 2.787 1.092 5.45 1.798 8.06.694 2.603 1.574 5.13 2.738 7.507 1.144 2.387 2.629 4.59 4.439 6.49.444.485.888.971 1.405 1.377.503.422.985.872 1.504 1.276 1.094.726 2.155 1.548 3.325 2.09.591.29 1.104.644 1.761.889l1.936.762.484.191.242.095c.072.025-.03-.008.003.003l.062.021.124.041.987.329 1.974.658c5.261 1.764 10.528 3.483 15.845 5.038l3.98 1.192 4.009 1.08 4.01 1.076c1.339.35 2.69.644 4.035.968 2.692.632 5.381 1.297 8.107 1.751l4.076.754 2.038.377 2.044.269 4.09.512c1.364.164 2.717.365 4.112.397l4.156.215 2.078.107.521.026c.068.002.213.012.219.007l.26-.001 1.038-.004c5.532-.021 11.059-.145 16.503-.696 5.442-.529 10.797-1.608 15.755-3.556 4.935-1.936 9.409-5.027 13.006-8.7l1.412-1.529.646-.706.643-.798 2.572-3.191 1.285-1.594 1.234-1.649 2.479-3.292c3.262-4.428 6.391-8.972 9.515-13.523 3.066-4.585 6.118-9.211 9.016-13.883l.352-.568.536-.24c1.787-.799 3.443-1.34 5.229-1.806 1.767-.448 3.571-.788 5.426-.914 1.86-.127 3.722-.072 5.65.276.494.105 1.007.212 1.48.331l1.223.398.152.05.077.025.118.042.02.008.04.017.321.136.641.271c.429.169.848.389 1.268.603 1.673.854 3.289 2 4.62 3.496 1.322 1.51 2.229 3.37 2.751 5.159.268.901.459 1.741.666 2.554.198.812.352 1.764.525 2.639.078.444.182.897.237 1.333l.147 1.298.288 2.595.871 10.269c.101 1.738.391 3.34.598 5.008.283 1.659.637 3.326.977 4.99.4 1.658.773 3.323 1.196 4.979.44 1.652.853 3.313 1.317 4.96.928 3.296 1.835 6.602 2.821 9.888l-.468.164z"/><path d="M662.802 420.364c.773 1.494 1.822 2.865 2.947 4.133 1.112 1.288 2.381 2.429 3.657 3.545 2.597 2.195 5.496 4.005 8.509 5.562l2.284 1.124 2.354.975c1.549.695 3.195 1.154 4.792 1.721 1.613.526 3.277.904 4.904 1.38 1.653.391 3.324.715 4.982 1.077 3.368.628 6.787 1.208 10.165 1.76 3.393.55 6.789 1.087 10.189 1.581 3.402.485 6.808.941 10.216 1.343 3.409.392 6.817.78 10.227 1.08 3.406.294 6.818.543 10.197.629 1.679.025 3.377.047 4.968-.077.388-.037.822-.04 1.157-.112l.533-.083.268-.04c-.265.065-.052.012-.101.023l.039-.012.077-.023.155-.045 1.241-.367c.41-.124.852-.233 1.163-.396.69-.319 1.362-.549 2.074-.916l2.142-1.146 2.069-1.315c.684-.449 1.325-.965 1.99-1.443 2.582-1.998 5.007-4.283 6.793-6.813 1.719-2.636 3.286-5.776 4.853-8.791a446.481 446.481 0 0 0 4.604-9.21l4.488-9.294 4.442-9.319.201-.421.294-.257 4.935-4.301c.373-.307.984-.749 1.383-1.029l1.271-.919a26.645 26.645 0 0 0 2.303-1.91c1.409-1.353 2.591-2.882 3.37-4.613.415-.854.686-1.77.921-2.696l.312-1.536c.079-.498.18-.987.238-1.495.273-2.004.376-4.052-.077-5.759-.231-.845-.604-1.562-1.138-2.124-.149-.125-.273-.277-.443-.386l-.12-.09-.06-.045c-.092-.057.062.026.011 0l-.357-.187-1.429-.747-5.713-2.983-5.755-2.813c-3.853-1.859-7.649-3.797-11.558-5.598l-11.7-5.405c-7.861-3.411-15.689-6.987-24.007-9.047-2.045-.6-4.146-1.055-6.227-1.561l-3.127-.745c-1.044-.24-2.099-.436-3.147-.656-2.102-.42-4.196-.88-6.307-1.253l-6.344-1.035c-2.109-.383-4.242-.589-6.365-.863l-3.188-.382-1.595-.184-1.6-.107-6.394-.431c-2.13-.113-4.259-.041-6.386-.071-1.062.005-2.132-.027-3.185.009l-3.222.144-6.444.288c-4.302.171-8.578.462-12.855.732-4.283.23-8.542.642-12.806.989-1.064.093-2.096.247-3.144.367l-3.203.389c-1.084.129-2.092.308-3.237.396-1.199.038-2.435.131-3.563-.021-1.183-.076-2.253-.238-3.326-.394l-.81-.115-.203-.028-.101-.015c-.328-.063-.147-.031-.246-.051l-.392-.095-1.566-.382c-1.081-.325-2.206-.74-3.306-1.116-1.057-.4-2.045-.82-3.07-1.229a183.043 183.043 0 0 1-11.845-5.487c-3.894-1.922-7.683-4.051-11.458-6.227l-2.777-1.606-2.771-1.553c-1.873-1.021-3.745-2.042-5.64-3.028a332.992 332.992 0 0 0-23.099-11.042c-7.829-3.375-15.797-6.401-23.874-8.931-2.031-.576-4.056-1.195-6.094-1.726l-3.065-.746-1.533-.374-1.541-.297-3.081-.591-.386-.074-.096-.019c-.041-.008.013 0-.058-.01l-.199-.029-.798-.117-1.595-.233-6.38-.953c-2.128-.337-4.226-.541-6.341-.819-2.115-.246-4.212-.553-6.344-.75-4.254-.416-8.504-.879-12.772-1.178-4.263-.362-8.534-.602-12.803-.899-4.272-.23-8.545-.44-12.817-.57-4.245-.111-8.561-.136-12.859-.187l-12.9-.141.975-.252-9.688 5.323-9.673 5.362c-3.197 1.829-6.434 3.603-9.595 5.484l-4.766 2.791-4.688 2.892c-.774.489-1.577.952-2.33 1.463l-2.25 1.541-2.254 1.541-2.145 1.704c-.721.574-1.459 1.137-2.167 1.721l-2.082 1.782-2.085 1.784-2.05 1.849c-2.747 2.452-5.43 4.982-8.095 7.532a555.317 555.317 0 0 0-7.933 7.722l-.365-.342c2.466-2.756 4.938-5.506 7.49-8.182 2.545-2.684 5.11-5.351 7.751-7.95l1.972-1.959 2.034-1.919 2.037-1.921c.688-.625 1.391-1.217 2.085-1.828l2.122-1.828 2.259-1.668 2.263-1.669c.756-.554 1.539-1.042 2.307-1.566l4.635-3.091 4.691-2.977c3.117-2.008 6.293-3.898 9.44-5.851 3.169-1.908 6.326-3.839 9.521-5.704l9.611-5.557.426-.246.549-.006 12.9-.141c4.302-.042 8.586-.113 12.94-.093 8.653.087 17.29.361 25.913 1 4.315.258 8.62.684 12.928 1.062 2.153.178 4.316.471 6.474.701 2.15.26 4.337.456 6.459.77l6.383.926 1.596.236.798.118.199.03.243.043.406.078 3.252.628 1.625.317 1.601.391 3.2.784c2.12.556 4.21 1.197 6.314 1.799 8.348 2.583 16.424 5.831 24.35 9.348a338.124 338.124 0 0 1 23.305 11.491 332.407 332.407 0 0 1 5.688 3.144l2.836 1.636 2.786 1.657c3.645 2.17 7.346 4.275 11.122 6.245a179.364 179.364 0 0 0 11.442 5.602c.963.408 1.946.849 2.892 1.231.929.333 1.81.703 2.775 1.026l1.559.415.39.104c-.032-.005.212.048-.049-.004l.098.016.196.032.784.128c1.051.177 2.104.354 3.067.433 1.007.162 1.927.081 2.876.092.998-.049 2.117-.217 3.17-.319l3.21-.297c1.091-.09 2.193-.216 3.273-.275 4.318-.211 8.633-.488 12.945-.58 4.313-.133 8.626-.284 12.922-.318l6.449-.106 3.226-.054c1.096-.007 2.176.056 3.264.08 8.711.061 17.276 1.365 25.799 2.687l6.369 1.143 6.334 1.32c1.054.227 2.113.43 3.163.677l3.143.767c2.095.521 4.196.988 6.276 1.609l3.129.874 1.564.434 1.534.498 3.067.996c1.067.339 2.016.796 3.03 1.189l5.992 2.447c1.989.833 4.022 1.577 5.979 2.468 7.884 3.459 15.796 6.819 23.694 10.396l5.93 2.651 5.824 2.787 1.456.697.363.174c.012 0 .215.13.179.11l.105.071.208.144c.285.181.533.425.794.646.999.956 1.662 2.198 2.034 3.41.721 2.454.609 4.802.398 7.047-.047.562-.142 1.131-.215 1.698l-.275 1.634c-.248 1.166-.559 2.332-1.042 3.434-.916 2.231-2.349 4.21-3.986 5.884a30.183 30.183 0 0 1-2.581 2.297l-1.309 1.015c-.466.359-.726.547-1.174.936l-4.684 4.296.495-.678-4.29 9.443c-1.436 3.145-2.934 6.26-4.437 9.377a439.932 439.932 0 0 1-4.613 9.317c-1.621 3.097-3.158 6.137-5.229 9.269-2.229 3.085-4.927 5.537-7.802 7.733-.738.523-1.45 1.081-2.212 1.573l-2.31 1.438-2.43 1.275c-.825.416-1.785.761-2.676 1.131-.47.208-.87.299-1.287.415l-1.247.343-.451.119-.373.054-.746.104c-.515.085-.947.078-1.419.113-1.852.107-3.606.046-5.374-.012-3.516-.155-6.981-.475-10.441-.837-6.912-.742-13.765-1.786-20.589-2.964a460.346 460.346 0 0 1-10.21-1.893 463.442 463.442 0 0 1-10.155-2.156c-1.696-.436-3.399-.835-5.085-1.302-1.667-.545-3.351-1.025-4.987-1.653-1.622-.668-3.282-1.227-4.849-2.025l-2.372-1.128-2.298-1.278c-3.024-1.763-5.915-3.78-8.475-6.177-1.268-1.209-2.478-2.48-3.535-3.877-1.068-1.385-2.043-2.844-2.751-4.469l.466-.205z"/><path d="M548.763 301.254l-4.558-1.003c-2.983-.644-7.355-1.616-12.966-2.612l-4.43-.78c-1.556-.233-3.18-.506-4.879-.738-3.392-.508-7.074-.942-11.009-1.317-3.935-.344-8.127-.609-12.518-.611-1.097 0-2.208-.017-3.325.042-1.119.038-2.25.071-3.382.184l-1.71.138-1.708.223c-1.129.122-2.328.325-3.539.51-2.381.384-4.835.786-7.095 1.38-1.144.282-2.161.671-3.044 1.175-.889.488-1.62 1.173-2.354 2.066-1.449 1.771-2.845 4.11-4.312 6.384l-1.107 1.735-1.026 1.708c-.382.603-.648 1.163-.943 1.733-.29.57-.607 1.125-.872 1.747-4.5 9.706-6.006 21.506-5.772 33.545.148 6.026.757 12.185 2.266 18.207.753 2.997 1.688 6.006 3.166 8.702.346.69.777 1.311 1.192 1.947l.705.869c.205.255.535.564.796.844 1.092 1.204 2.271 2.159 3.485 3.126 5.094 3.65 11.275 5.721 17.402 7.633 6.215 1.733 12.558 3.205 18.891 4.531 3.196.608 6.398 1.302 9.587 1.838l4.774.792 2.383.396 2.394.321 4.774.648c1.589.223 3.183.32 4.769.487 3.171.373 6.335.477 9.48.638l4.705.032c1.562-.013 3.119-.115 4.673-.167 1.553-.05 3.1-.248 4.643-.363l1.054-.095 1.17-.178c.384-.062.791-.113 1.155-.184l.992-.251c2.686-.664 5.393-1.858 7.812-3.375 2.442-1.525 4.705-3.362 6.789-5.394 4.145-4.099 7.736-8.744 10.97-13.515 1.629-2.384 3.137-4.796 4.658-7.242 1.483-2.392 2.941-4.792 4.282-7.19 2.695-4.784 5.036-9.591 6.575-14.312.742-2.353 1.289-4.711 1.295-6.907l-.004-.817-.091-.77-.057-.464-.092-.316a12.203 12.203 0 0 1-.159-.64c-.188-.486-.351-.996-.577-1.488-.257-.488-.448-.993-.749-1.467-2.238-3.87-5.464-7.188-8.758-9.947-3.341-2.738-6.835-4.998-10.343-6.647-3.594-1.688-6.945-3.311-10.085-4.69a519.819 519.819 0 0 0-8.687-3.645c-5.256-2.192-9.472-3.721-12.316-4.824l-4.37-1.632zm.156-.475l16.876 6.051c2.679.989 5.656 2.059 8.915 3.196l10.404 3.965c3.807 1.445 7.639 3.519 11.404 6.147 3.707 2.694 7.496 5.84 10.408 10.318.383.54.683 1.168 1.027 1.757.324.612.59 1.271.877 1.935l.359 1.162.168.588.085.468.082.466.041.233.021.117c-.01-.108.038.277.034.289l.049 1.083c.083 2.899-.485 5.668-1.225 8.356-1.533 5.371-4.012 10.406-6.698 15.427-1.352 2.512-2.802 4.987-4.308 7.501a180.852 180.852 0 0 1-4.785 7.419c-1.666 2.486-3.501 4.922-5.411 7.344a73.2 73.2 0 0 1-6.397 6.916c-4.66 4.342-10.334 8.194-17.163 9.728l-1.306.284c-.409.069-.786.108-1.181.164l-1.173.155c.043-.005-.223.03-.251.029l-.151.01-.301.021-.604.041c-1.611.09-3.219.261-4.844.284-1.624.024-3.251.096-4.881.079l-4.894-.153a153.639 153.639 0 0 1-19.451-2.496 87.397 87.397 0 0 1-4.817-.978l-4.807-1.056c-3.2-.711-6.331-1.562-9.5-2.337-3.201-.768-6.323-1.712-9.481-2.558l-2.359-.659-2.34-.737-4.672-1.469c-1.553-.5-3.082-1.09-4.62-1.629-.766-.283-1.54-.534-2.296-.843l-2.25-.981-2.25-.966-2.173-1.157c-1.479-.708-2.812-1.694-4.172-2.617-1.282-1.035-2.577-2.129-3.653-3.274-.287-.3-.548-.53-.855-.886l-.812-.979c-.467-.691-.948-1.375-1.325-2.104-.811-1.434-1.441-2.931-2.007-4.439-.563-1.508-1.082-3.026-1.503-4.562a98.228 98.228 0 0 1-3.227-18.525c-.453-6.171-.509-12.278.107-18.275.652-5.98 1.976-11.852 4.362-17.226 1.186-2.746 2.729-5.266 4.161-7.497 1.474-2.294 2.77-4.62 4.718-6.887.462-.569 1.047-1.108 1.616-1.633.626-.496 1.261-.974 1.963-1.342 1.377-.753 2.803-1.228 4.13-1.531 2.678-.627 5.184-.865 7.638-1.161 1.213-.128 2.407-.275 3.662-.356l1.842-.126 1.814-.026c1.203-.038 2.383.005 3.547.043 1.167.018 2.31.109 3.438.186 4.511.351 8.731.957 12.674 1.603 3.935.691 7.597 1.395 10.969 2.099l9.246 2.001 17.491 3.995.015.005zm184.106 44.268l-4.28-.828c-1.397-.294-3.13-.571-5.167-.882a145.501 145.501 0 0 0-3.284-.486l-3.746-.416c-5.271-.62-11.726-1.042-19.1-1.081l-2.807-.01-2.884.088c-1.956.018-3.936.209-5.965.367-4.114.391-8.461.892-12.853 1.577-2.189.359-4.398.83-6.467 1.5-1.053.311-2.004.747-2.874 1.213-.39.26-.803.507-1.083.796-.181.13-.291.279-.395.422l-.176.207c-.03.036.106-.182.021-.04l-.057.1-.112.201c-.979 1.762-1.646 4.079-2.249 6.444-.595 2.371-1.024 4.853-1.424 7.374-.782 5.046-1.258 10.317-1.259 15.662.064 5.395.456 10.937 1.226 16.522.835 5.55 1.938 11.242 4.312 16.465.606 1.291 1.264 2.565 2.069 3.731.786 1.146 1.772 2.329 2.645 3.518 1.78 2.372 3.589 4.669 5.825 6.562 4.406 3.871 9.983 6.269 15.646 8.135 5.725 1.777 11.659 2.968 17.62 3.936 2.97.504 5.981.887 8.995 1.317 3.009.422 6.019.854 9.006 1.203 2.988.376 5.969.807 8.94 1.07l4.443.477 4.4.281c1.472.138 2.899.074 4.335.092.713-.017 1.443.044 2.139-.034l2.094-.186c1.404-.053 2.75-.433 4.115-.655.68-.113 1.365-.354 2.046-.523l1.021-.278.51-.139.127-.035c.077-.021-.218.07-.032.008l.258-.098c.654-.263 1.47-.514 1.859-.803l.729-.399c.249-.143.519-.357.777-.53l.783-.547.745-.635c.508-.401.982-.865 1.448-1.341 1.877-1.882 3.537-4.061 5.053-6.33 3.012-4.567 5.511-9.473 7.8-14.373l.4-.868.406-.94.81-1.873c.563-1.253.944-2.438 1.435-3.644.912-2.412 1.766-4.877 2.467-7.313 1.432-4.867 2.456-9.745 2.759-14.318.104-1.106.11-2.395.155-3.588.044-1.221.056-2.338.032-3.443-.072-2.171-.419-4.116-1.261-5.876-1.692-3.52-5.002-6.275-8.323-8.488-.813-.588-1.708-1.057-2.543-1.583l-.633-.383c-.136-.086-.42-.226-.622-.335l-1.316-.694c-1.746-.9-3.427-1.853-5.084-2.635l-4.826-2.252c-1.55-.739-3.116-1.323-4.584-1.955-1.48-.604-2.884-1.231-4.26-1.742l-3.931-1.467c-2.489-.929-4.734-1.7-6.69-2.361l-4.995-1.599-4.169-1.262zm.127-.484l4.21 1.193c2.735.812 6.738 2.027 11.825 3.616 5.08 1.638 11.222 3.597 18.245 6.284 1.756.659 3.481 1.458 5.305 2.215l1.369.583c.247.109.423.171.73.32l.694.344c.922.478 1.888.89 2.813 1.445.931.54 1.896 1.042 2.816 1.688.465.312.94.612 1.405.943l1.37 1.069c1.804 1.484 3.55 3.303 4.812 5.609 1.279 2.29 1.946 4.992 2.128 7.551.078 1.266.108 2.543.11 3.738 0 1.222.044 2.373-.019 3.721l-.062 1.978c-.044.653-.133 1.295-.208 1.946l-.234 1.958a1188.592 1188.592 0 0 1-.702 3.882l-.445 1.932c-.298 1.293-.6 2.596-.984 3.878-.702 2.598-1.536 5.159-2.477 7.777-.5 1.285-.982 2.661-1.531 3.883l-.814 1.871-.408.939-.462.998c-2.367 5.027-4.949 10.163-8.357 15.03-1.7 2.432-3.582 4.817-5.84 6.991-.56.546-1.135 1.083-1.775 1.575l-.935.755-1.019.687c-.352.225-.662.458-1.049.674l-1.21.622c-.869.472-1.478.615-2.188.887l-.259.093c.1-.033-.279.097-.293.096l-.139.035-.556.14-1.112.279c-.75.171-1.468.404-2.247.523-1.547.229-3.084.606-4.654.644l-2.349.157c-.785.066-1.548-.01-2.323-.008-1.543-.043-3.107-.031-4.615-.218l-4.567-.43-4.515-.63c-3.021-.402-6.005-.968-9.008-1.48-3.008-.517-5.979-1.117-8.961-1.705-2.974-.595-5.973-1.145-8.968-1.826-5.985-1.269-11.945-2.771-17.708-4.86-1.43-.556-2.874-1.064-4.281-1.668-1.396-.636-2.811-1.22-4.15-1.976-2.72-1.399-5.336-3.061-7.623-5.111-2.305-2.026-4.275-4.389-6.068-6.742-.898-1.192-1.828-2.268-2.732-3.543-.906-1.237-1.659-2.557-2.345-3.897-2.632-5.418-4.169-11.136-5.354-16.781-1.11-5.658-1.907-11.288-2.292-16.857a88.422 88.422 0 0 1-.064-8.325c.127-2.735.373-5.427.702-8.079.33-2.653.814-5.25 1.422-7.812a52.922 52.922 0 0 1 1.067-3.82c.225-.647.438-1.25.727-1.922l.489-1.043c.17-.373.317-.561.477-.849l.117-.198.059-.099c-.05.074.13-.208.152-.229l.409-.501c.273-.341.561-.655.871-.893.606-.559 1.24-.931 1.872-1.316 1.264-.659 2.525-1.172 3.756-1.512 2.47-.723 4.864-1.056 7.187-1.336 4.648-.537 9.03-.638 13.211-.76 2.125.009 4.192-.014 6.174.131l2.936.155 2.834.242c1.858.16 3.655.311 5.381.535 1.727.207 3.395.357 4.989.575 3.187.457 6.115.813 8.748 1.242l3.736.576c1.168.219 2.264.42 3.285.587 2.045.338 3.78.638 5.17.948l4.291.885.008.001zm51.258 71.385a11.55 11.55 0 0 1 4.113.523 9.618 9.618 0 0 1 3.771 2.163c1.12 1.024 1.913 2.405 2.408 3.851.462 1.547.624 2.723.893 4.055l.748 3.922c.223 1.316.433 2.639.621 3.978.184 1.338.375 2.688.446 4.091.039.703.067 1.409.036 2.175-.032.763-.052 1.531-.43 2.649l-.193.451-.052.111-.027.055c-.021.042.083-.147.033-.055l-.056.111-.223.445c-.181.33-.211.506-.305.734-.089.197-.16.482-.238.742a7.25 7.25 0 0 0-.208.802c-.229 1.086-.378 2.22-.334 3.356-.013.285.026.567.037.852l.023.428.044.535c.057.652.107 1.321.133 2.042.046.711.04 1.4.032 2.075.002.681-.013 1.36-.039 2.04-.014.678-.05 1.357-.107 2.038a37.827 37.827 0 0 1-.181 2.045 24.754 24.754 0 0 1-.278 2.068c-.062.351-.095.681-.203 1.062l-.141.553-.071.274-.036.137-.018.068-.032.11-.013.028c-.503 1.199-1.143 2.475-1.776 3.697-.653 1.167-1.225 2.374-1.867 3.538a201.341 201.341 0 0 0-3.614 7.098 266.278 266.278 0 0 0-3.407 7.187l-.201.454-.162.424-.361.927c-.238.617-.509 1.243-.642 1.835-.15.606-.337 1.188-.457 1.802l-.304 1.857c-.281 2.494-.143 5.047-.014 7.701l.246 7.96.173 7.954c.056 2.653.091 5.305.181 7.933.084 2.635.138 5.268.163 7.901l-.107-.72c.307 1.113.521 2.094.729 3.146.194 1.038.354 2.082.467 3.142.122 1.056.197 2.127.214 3.21a29.405 29.405 0 0 1-.138 3.299 34.695 34.695 0 0 1-.257 1.687c-.147.572-.265 1.138-.448 1.707-.229.574-.37 1.143-.688 1.706l-.444.841c-.136.267-.265.438-.397.662a75.12 75.12 0 0 0-1.49 2.492l-1.479 2.565c-1.007 1.731-1.942 3.52-3.297 5.285-.342.441-.718.883-1.157 1.314-.469.432-.922.846-1.707 1.194-.348.158-1.257.413-1.759.477-.547.087-1.077.144-1.596.181-2.082.169-4.095.13-6.113.055a81.188 81.188 0 0 1-6.02-.459v-.5l5.934-.777c1.96-.286 3.932-.575 5.793-.998.469-.104.918-.224 1.344-.359.248-.063.352-.134.507-.182.081-.034.128-.031.238-.09l.33-.176c.121-.072.412-.354.631-.634.236-.304.469-.652.691-1.032.885-1.539 1.676-3.359 2.491-5.169l1.25-2.755c.433-.895.925-1.885 1.388-2.747.106-.213.257-.457.327-.645l.215-.502c.166-.312.223-.737.349-1.093.095-.386.145-.807.226-1.204l.117-1.279c.039-.875.038-1.767-.021-2.675a39.483 39.483 0 0 0-.28-2.746c-.119-.921-.3-1.842-.479-2.761a39.12 39.12 0 0 0-.631-2.676l-.104-.373-.003-.347a355.64 355.64 0 0 1 .031-8.001c.017-2.672.083-5.321.177-7.969l.262-7.947.166-3.974.267-3.968c.199-2.64.382-5.411 1.038-8.146l.583-2.018c.215-.667.512-1.324.764-1.98.238-.684.554-1.249.851-1.845l.448-.889.243-.483.244-.435c1.269-2.33 2.53-4.662 3.717-7.029a112.362 112.362 0 0 0 3.402-7.174 96.451 96.451 0 0 0 1.522-3.654c.435-1.203.886-2.344 1.221-3.663l.009-.03c-.046.143-.012.024-.021.049l.005-.054.01-.107.02-.214.043-.424c.042-.266.029-.601.038-.909.021-.618.012-1.25-.021-1.897-.034-1.277-.147-2.576-.256-3.866-.095-1.278-.26-2.609-.404-3.825a34.17 34.17 0 0 0-.26-1.914l-.144-1.014c-.04-.375-.12-.749-.118-1.128-.105-1.512.041-3.04.377-4.537.082-.375.166-.75.3-1.118.124-.371.228-.727.413-1.134.165-.381.353-.834.503-1.08l.237-.437.059-.109c-.041.074.074-.133.06-.11l-.002-.002-.004-.004c-.004-.004-.005-.006-.001-.007.06-.13.18-.701.198-1.257.043-.557.042-1.178.027-1.798a77.33 77.33 0 0 0-.179-3.834l-.649-7.873-.163-1.988c-.025-.318-.032-.693-.071-.964l-.098-.846a7.481 7.481 0 0 0-1.316-3.077c-1.374-1.851-3.769-3.104-6.292-3.668l.027-.495zM538.966 540.634l.329.126c.216.094.534.193.947.422.857.436 1.976 1.128 3.361 2.099 1.372.97 2.984 2.203 4.78 3.642 1.793 1.436 3.771 3.102 5.93 4.778a40.596 40.596 0 0 0 3.344 2.387c.277.147.558.291.831.453.264.131.483.191.724.311-.092-.021.236.062-.2-.046l.036.007.073.012.146.025.292.057.586.113c.29.002.569.003.859.032 1.345.044 3.057.051 4.709.021 1.697-.029 3.432-.061 5.195-.092 3.55-.089 7.212-.333 10.914-.772 3.717-.381 7.458-.962 11.394-1.111.998.025 1.979-.056 3.023.104.53.072 1.012.08 1.588.213l1.386.291c.925.23 1.818.373 2.763.675l2.788.879c3.595 1.256 7.044 2.634 10.29 4.021l2.405 1.009c.788.35 1.569.673 2.309.972l1.113.464c.382.171.677.224 1.013.352l.752.268c.399.051.865.129 1.054.085.127-.005.252-.01.378-.005l.19.008.27-.014 1.089-.06 2.208-.204a117.36 117.36 0 0 0 4.285-.543c2.771-.358 5.318-.77 7.591-1.08l5.895-.836 3.806-.527c.443-.056.777-.104.996-.145l.339-.058.186.465-.314.171c-.21.118-.521.277-.926.476-.814.396-2.017.93-3.566 1.559a100.161 100.161 0 0 1-5.647 2.085c-2.2.755-4.707 1.516-7.485 2.265-1.396.349-2.86.696-4.401 1.021-.778.159-1.573.297-2.401.421l-1.28.16-.328.039-.413.021-.833.022c-.624.021-.967-.037-1.384-.071l-.153-.014-.038-.004c.044.011-.52-.093-.302-.056l-.087-.025-.348-.102-.699-.208c-.981-.277-1.772-.623-2.597-.959-.843-.33-1.633-.705-2.428-1.073-.802-.361-1.603-.763-2.392-1.146-3.181-1.565-6.417-3.149-9.728-4.626-1.63-.682-3.244-1.445-5.048-2.096l-1.313-.53c-.322-.147-.783-.242-1.174-.371-.792-.286-1.714-.374-2.588-.559-3.605-.553-7.412-.472-11.077-.118-3.686.331-7.265 1.091-10.729 1.907-1.734.407-3.445.816-5.148 1.154-.847.17-1.715.303-2.561.442-.424.062-.871.095-1.303.143-.456.032-.812.093-1.377.082a25.72 25.72 0 0 1-1.554-.04l-.591-.089-.294-.044-.146-.024-.073-.013-.036-.006c-.461-.112-.154-.041-.269-.071-.484-.189-1.009-.38-1.438-.597-.401-.219-.79-.454-1.177-.682-1.418-.946-2.615-1.938-3.703-2.918-2.17-1.968-3.95-3.885-5.501-5.602a213.462 213.462 0 0 1-3.901-4.508c-1.07-1.233-1.918-2.237-2.498-2.834-.275-.329-.56-.549-.723-.71a556.57 556.57 0 0 1-.256-.244l.261-.426zm-58.19-64.459c0-.001.008.143 0 .393-.02.245-.03.6-.078.99-.079.822-.342 1.885-.851 3.009-.272.552-.546 1.158-1.026 1.677-.459.531-1.185.942-1.889 1.413-.708.466-1.321 1.045-1.636 1.781-.345.699-.486 1.609-.286 2.287a.27.27 0 0 0 .097.185l.056.058.026.025.012.013.006.006.002.002c-.014-.312-.001-.081-.003-.148l.322.598c.103.192.187.414.284.583.098.157.192.311.268.464l.445.922c.171.357.338.709.485 1.06.287.695.531 1.405.646 2.103.112.699.201 1.377.224 2.02.06 1.281-.066 2.42-.219 3.24a7.818 7.818 0 0 1-.342 1.328l-.472.166-.312-.211a9.323 9.323 0 0 1-.776-.636 12.562 12.562 0 0 1-2.126-2.515c-.705-1.107-1.409-2.446-1.64-4.073-.065-.404-.113-.82-.159-1.24a33.12 33.12 0 0 1-.128-1.456 8.758 8.758 0 0 1-.016-.742c.014-.237.067-.431.11-.65l.163-.645c-.002-.073.009.151-.004-.168l.005-.017.011-.033.021-.065.045-.13.094-.254c.064-.171.134-.327.214-.429.617-.946 1.206-1.556 1.597-2.325.418-.738.615-1.563.695-2.453.094-.878.17-1.754.484-2.434.299-.689.776-1.217 1.211-1.701.906-.947 1.878-1.572 2.689-1.911a4.7 4.7 0 0 1 .982-.337c.244-.052.386-.068.386-.069l.383.319zm220.027 14.935s.709.457 1.702 1.391c1.014.921 2.286 2.334 3.564 4.167.626.924 1.31 1.921 1.836 3.087.539 1.16.871 2.516 1.247 3.905.362 1.397.89 2.753 1.672 3.986.741 1.262 1.744 2.377 2.812 3.434.539.534 1.053.9 1.529 1.341l.086.082c.277.35.084.104.148.186l.013.013.024.025.049.05c.066.071.115.095.255.324.115.184.224.377.319.574l.167.367c.204.49.331.913.433 1.334.38 1.659.555 3.151.668 4.608.227 2.902-.183 5.536-.654 7.767a31.489 31.489 0 0 1-.811 3.022 24.46 24.46 0 0 1-.834 2.297 19.485 19.485 0 0 1-.669 1.46l-.277.511-.498-.053c.001 0-.273-.773-.556-2.099a31.414 31.414 0 0 1-.436-2.377 45.083 45.083 0 0 1-.373-3.048c-.191-2.219-.321-4.783-.106-7.456.094-1.328.2-2.725.165-3.964l-.021-.818.005-.162a.196.196 0 0 0 .098.067c.077.054.013-.07-.024-.152l-.029-.064-.015-.032-.007-.016c.059.071-.142-.184.13.156l-.075-.145c-.362-.779-.766-1.588-1.006-2.319-.492-1.474-1.085-2.867-1.81-4.139-.706-1.286-1.654-2.404-2.674-3.428-1.013-1.026-2.042-1.996-2.76-3.061-.735-1.055-1.247-2.157-1.723-3.172-.909-2.053-1.462-3.877-1.714-5.229-.277-1.336-.289-2.18-.289-2.18l.439-.24zM443.498 371.203s-.217.32-.643.898l-1.833 2.455c-.796 1.012-1.729 2.311-2.853 3.72-1.135 1.4-2.338 3.045-3.755 4.732a150.855 150.855 0 0 1-4.462 5.53c-1.565 1.964-3.567 3.797-5.307 5.955-.883 1.069-1.842 2.134-2.643 3.314a52.011 52.011 0 0 0-2.156 3.744c-.323.641-.711 1.298-.947 1.948l-.771 2.093c-.491 1.414-.789 2.843-1.148 4.26l-.875 4.353a109.688 109.688 0 0 1-.884 4.308l-.885 4.235-.823 4.147a151.92 151.92 0 0 1-1.685 7.832c-.592 2.48-1.233 4.813-1.783 6.979-.606 2.154-1.132 4.138-1.67 5.885-.507 1.753-1 3.274-1.409 4.529-.815 2.509-1.383 3.933-1.382 3.933l-.495-.072s-.131-1.532-.105-4.184c.01-1.326.046-2.934.161-4.769.097-1.838.282-3.9.518-6.148.268-2.241.576-4.67 1.021-7.218a85.035 85.035 0 0 1 1.769-7.946l1.177-4.146 1.327-4.221a91.096 91.096 0 0 1 1.564-4.229l1.875-4.165 1.021-2.072c.325-.692.638-1.39 1.004-2.035l.998-1.995c.33-.721.739-1.315 1.082-1.985a54.459 54.459 0 0 0 1.982-3.955c.644-1.312 1.326-2.582 1.941-3.878 1.18-2.631 2.595-5.014 4.064-7.19.713-1.106 1.57-2.047 2.365-2.986.806-.929 1.585-1.826 2.37-2.653 1.626-1.602 3.102-3.077 4.538-4.255 1.436-1.18 2.686-2.188 3.82-2.941 1.104-.774 1.993-1.328 2.622-1.665.627-.345.972-.517.972-.517l.323.375zm6.529 22.471s-.511 1.238-1.599 3.236c-1.065 2.015-2.735 4.765-4.893 7.923-1.092 1.569-2.259 3.275-3.638 4.965-1.369 1.698-3.023 3.335-4.628 5.115-1.558 1.769-3.204 3.762-3.955 5.977-.162.496-.32 1.169-.438 1.777-.126.623-.241 1.25-.346 1.88a30.89 30.89 0 0 1-.331 1.905l-.324 1.929-.646 3.877a74.36 74.36 0 0 1-.831 3.744 222.567 222.567 0 0 1-1.905 7.189c-1.255 4.657-2.942 8.829-4.461 12.379-.793 1.764-1.516 3.381-2.225 4.792a75.836 75.836 0 0 1-1.892 3.634 55.956 55.956 0 0 1-1.334 2.298l-.509.801-.474-.161s.078-1.327.413-3.58c.165-1.127.381-2.49.686-4.035.281-1.552.675-3.277 1.101-5.159.896-3.75 2.051-8.087 3.753-12.576l2.632-6.917c.883-2.367 2.02-4.681 3.048-6.994.516-1.17 1.067-2.32 1.482-3.541.207-.607.404-1.215.589-1.825.177-.627.348-1.177.574-1.882.463-1.301 1.053-2.42 1.586-3.574l1.584-3.398c1.035-2.236 2.076-4.386 3.306-6.245 1.216-1.87 2.565-3.483 3.812-4.965 2.529-2.938 4.864-5.191 6.617-6.666 1.733-1.491 2.861-2.223 2.861-2.223l.385.32zm-87.784-40.793a95.44 95.44 0 0 0-.753 3.653c-.096.605-.212 1.2-.299 1.795-.104.593-.147 1.193-.23 1.779-.05.591-.126 1.175-.153 1.758-.044.582-.06 1.159-.072 1.732-.008.573.011 1.14.027 1.702.061.557.057 1.119.154 1.661l.23 1.812c.079.618.153 1.234.208 1.855.039.663.039 1.33.047 1.993.01.67-.035 1.316-.095 1.961a32.762 32.762 0 0 1-.585 3.843c-.143.634-.267 1.264-.437 1.893l-.502 1.899-.122.463-.219.156c-.59.42-1.198.966-1.726 1.524a11.9 11.9 0 0 0-1.433 1.823 8.39 8.39 0 0 0-.935 2.042l-.125.526-.056.521c-.022.174.012.338.012.506l.025.64c.049.35-.047.97-.101 1.418-.081.445-.17.892-.294 1.305a44.29 44.29 0 0 1-.756 2.437c-.534 1.565-1.024 3.08-1.398 4.549-.102.366-.19.73-.258 1.093-.077.364-.16.719-.213 1.075-.07.355-.125.709-.151 1.061-.039.352-.081.7-.082 1.046-.012.346-.04.691-.007 1.032l.056 1.133.139 2.434c.075 1.623.18 3.245.205 4.868.03.804.015 1.623-.019 2.484l-.133 2.54-.71 1.667c.002-.009-.062.06-.111.11-.048.047-.103.112-.157.175a6.068 6.068 0 0 0-.325.393c-.222.266-.418.571-.629.861-.192.308-.416.598-.591.922-.18.32-.38.633-.532.972-.161.334-.34.663-.468 1.014-.129.35-.323.682-.429 1.043-.121.357-.26.713-.372 1.077l-.291 1.111c-.111.372-.16.755-.246 1.137a7.969 7.969 0 0 0-.183 1.161l-.146 1.185-.051 1.205c-.023.406-.04.815-.017 1.224l.031 1.243c-.006.422.064.832.094 1.255l.09 1.285-.473.164-.64-1.148c-.194-.394-.43-.779-.592-1.189l-.479-1.246a7.683 7.683 0 0 1-.408-1.283l-.335-1.319a27.249 27.249 0 0 1-.208-1.354 10.193 10.193 0 0 1-.121-1.375c-.013-.461-.061-.929-.041-1.395l.09-1.4c.049-.466.128-.93.194-1.399.057-.471.184-.928.292-1.391.104-.465.265-.913.412-1.367.138-.458.33-.897.508-1.345.172-.449.402-.877.605-1.318.24-.426.47-.854.749-1.271.13-.21.273-.42.427-.631l.237-.322c.088-.112.157-.207.303-.372l-.71 1.667.002-2.329c.034-.762.014-1.566.016-2.385-.007-1.624.065-3.248.108-4.872l.09-2.436.069-1.302c.012-.472.089-.934.155-1.395.054-.465.152-.916.267-1.362.098-.452.227-.888.37-1.316.131-.436.275-.859.459-1.265.166-.415.349-.815.543-1.206.363-.795.816-1.529 1.245-2.25l1.311-2.098c.417-.684.855-1.353 1.177-2.031a10.1 10.1 0 0 0 .443-1.014c.073-.174.092-.297.141-.452.02-.077.048-.141.064-.231l.027-.304.027-.304.005-.076c.001.028-.001-.077.002.061v-.011l.001-.022.002-.045.008-.18c.019-.237.01-.482.058-.709l.127-.683.195-.648c.288-.847.675-1.625 1.096-2.372.429-.741.896-1.449 1.383-2.145.5-.698.979-1.362 1.564-2.062l-.341.619c.021-.568.029-1.193 0-1.797-.01-.605-.066-1.218-.098-1.823-.026-.604-.125-1.213-.153-1.813-.029-.602-.125-1.203-.175-1.8-.085-1.211-.234-2.34-.276-3.504a52.279 52.279 0 0 1-.16-1.858l-.07-.931-.051-.972c-.056-.695-.011-1.38.014-2.066.061-.68.116-1.359.241-2.022.116-.665.245-1.323.43-1.964.152-.649.384-1.273.592-1.898.479-1.232 1.003-2.43 1.665-3.554.647-1.128 1.379-2.202 2.267-3.166l.444.235zm-6.408 104.731s-.116-.281-.271-.817a13.058 13.058 0 0 1-.425-2.382 12.525 12.525 0 0 1 .212-3.878c.322-1.498 1.046-3.379 2.866-4.894l.083-.07.042-.035.021-.018c-.05.032.092-.064.083-.058l.129-.092.26-.186c.175-.124.334-.245.591-.395.231-.142.48-.284.716-.412l.69-.346c.928-.445 1.903-.766 2.831-1.015 1.871-.521 3.479-.653 4.938-1.714.191-.12.362-.272.528-.434l.258-.239c.044-.066-.042.074-.028.052l.016-.02.032-.039.063-.079.126-.157c.22-.265.416-.658.556-1.138.28-.938.332-2.015.303-3.085-.057-2.16-.519-4.36-1.006-6.594-.472-2.235-.935-4.545-.857-6.948.078-2.378.425-4.929 1.726-7.312 1.101-1.942 2.173-3.589 3.086-5.136.234-.389.486-.761.724-1.135l.699-1.156 1.374-2.183a205.55 205.55 0 0 1 2.479-3.831c.369-.574.737-1.101 1.082-1.588.335-.492.641-.945.939-1.345 1.153-1.62 1.904-2.516 1.904-2.516l.462.19-.105.831c-.084.535-.204 1.324-.421 2.303-.208.983-.484 2.17-.883 3.5-.357 1.348-.895 2.817-1.458 4.435-.304.8-.648 1.625-1.01 2.476a33.667 33.667 0 0 1-1.231 2.639c-.886 1.854-2.048 3.592-3.173 5.205-.87 1.231-1.466 3.029-1.78 5.017-.313 1.987-.622 4.162-.824 6.389-.225 2.231-.253 4.487-.215 6.731.002 1.128.024 2.248-.079 3.436a7.104 7.104 0 0 1-.428 1.911l-.075.188-.037.093-.019.047-.009.023c.007-.007-.091.146-.056.093l-.223.393c-.15.263-.296.53-.479.781-.679 1.029-1.623 1.932-2.614 2.599-.995.667-1.995 1.122-2.885 1.481l-2.416.937-.527.226c-.161.073-.294.149-.448.213-.133.048-.334.166-.52.271l-.278.157-.138.078.051-.034-.01.007-.02.015-.039.029c-.882.521-1.661 1.498-2.202 2.558-.558 1.051-.95 2.114-1.272 3.007a48.733 48.733 0 0 0-.676 2.151l-.233.79-.5.029z"/><path d="M380.426 384.997c-1.565 1.014-3.13 1.994-4.65 3.004-.753.518-1.514 1.005-2.24 1.531a41.202 41.202 0 0 0-2.09 1.609c-.652.55-1.269 1.121-1.702 1.679-.208.272-.389.546-.429.711-.027.049-.018.073-.02.095-.011.029-.004.04.011.029.003-.002.004-.005.003-.008l-.001.153.007.257c.001-.007.003.023.002-.03l-.002-.053-.021-.169a1.954 1.954 0 0 0-.05-.214c-.092-.208.115.168-.235-.512-.752-1.526-3.337-.584-2.805-.582-.21.137-.409.333-.55.547-.179.294-.154.291-.163.295l-.026.059-.04.11-.012.033c-.005.014 0-.011 0-.015l.045-.278.103-.667.218-1.38c.162-.923.329-1.852.525-2.779.403-1.852.856-3.712 1.548-5.548.336-.921.74-1.833 1.224-2.741.248-.451.505-.909.82-1.353.157-.223.317-.445.497-.667l.066-.083.076-.098.029-.032.117-.128.234-.255.939-1.021c.312-.335.717-.688 1.07-1.026.722-.707 1.472-1.296 2.211-1.907.765-.58 1.513-1.168 2.294-1.711a54.664 54.664 0 0 1 2.387-1.592l-.255 1.247a91.454 91.454 0 0 0-3.368-5.584l.075.099a53.615 53.615 0 0 0-3.225-3.207c-1.106-1.04-2.276-2.011-3.456-2.956a62.18 62.18 0 0 0-3.635-2.658c-1.227-.82-2.503-1.579-3.711-2.151-.595-.279-1.214-.486-1.634-.549a.663.663 0 0 0-.246-.017l-.045-.001-.011-.001h-.005c.367-.01.091-.001.169-.003l-.071.009-.285.034-.071.009c-.009.004.002.009.002.013a.06.06 0 0 0 .017.018c.006.012.033.002.019.01-.076.053-.141.068-.23.128-.723.427-1.665 1.459-2.428 2.553-1.563 2.252-2.866 4.897-3.999 7.576a89.809 89.809 0 0 0-1.621 4.072 69.633 69.633 0 0 0-1.398 4.129 37.47 37.47 0 0 0-.571 2.067l-.032.129-.004.016c.007-.043-.022.121.016-.094l-.007.035-.013.07-.056.282-.114.562c-.071.368-.169.774-.191 1.074-.18 1.246-.288 2.733-.315 4.187-.064 1.461-.021 2.948.022 4.441.029 1.498.133 3 .219 4.512.199 3.022.46 6.069.718 9.141l-.483.128c-1.252-2.851-2.227-5.796-3.051-8.799-.807-3.009-1.428-6.081-1.747-9.263a23.15 23.15 0 0 1-.156-2.414c-.049-.788-.006-1.685.024-2.559.006-.465.059-.811.094-1.199l.058-.571.031-.285.008-.071.004-.036.026-.147.027-.151c.14-.81.306-1.605.489-2.393a45.214 45.214 0 0 1 1.36-4.611 48.872 48.872 0 0 1 1.805-4.43 50.43 50.43 0 0 1 2.261-4.252 32.487 32.487 0 0 1 2.813-4.062c1.118-1.288 2.244-2.628 4.26-3.611.248-.12.551-.216.827-.313a6.02 6.02 0 0 1 .574-.13c.168-.031.463-.079.509-.07l.287-.007.072-.002.205-.005.03.003.06.005.24.026c.335.031.621.095.882.171 1.066.302 1.834.772 2.574 1.23 1.457.929 2.629 2.021 3.788 3.105a73.443 73.443 0 0 1 3.266 3.377l6.188 6.892.044.049.031.05a92.288 92.288 0 0 0 3.632 5.416l.473.65-.728.597a22.8 22.8 0 0 0-1.971 1.809c-.645.625-1.238 1.304-1.819 1.982-.559.697-1.139 1.386-1.611 2.086-.494.657-.987 1.445-1.499 2.224l-.19.291-.095.145-.024.036c-.041.055.049-.065.039-.05l-.004.007-.008.015-.032.06a8.159 8.159 0 0 0-.252.495c-.161.346-.33.707-.478 1.088a38.992 38.992 0 0 0-.846 2.383 96.966 96.966 0 0 0-1.464 5.089c-.226.868-.447 1.741-.655 2.623l-.324 1.331-.168.688-.102.397-.043.153-.037.116-.055.151-.033.079c-.011.011.011.015-.172.314-.146.22-.348.422-.562.565.529.013-2.063.941-2.821-.586-.355-.685-.146-.318-.241-.532a2.173 2.173 0 0 1-.054-.236c-.032-.216-.018-.156-.024-.211l-.004-.096.002-.203c.009-.181.025-.295.039-.434l.023-.191.06-.349c.041-.242.104-.454.183-.638.074-.196.154-.392.246-.541.36-.668.771-1.118 1.184-1.521.832-.784 1.671-1.361 2.53-1.863a24.414 24.414 0 0 1 2.599-1.319c.876-.386 1.747-.758 2.643-1.063 1.781-.632 3.58-1.167 5.435-1.529l.178.462zm293.86 345.289c6.572 3.122 13.055 6.427 19.412 9.994 3.179 1.789 6.334 3.622 9.404 5.654 1.524 1.043 3.045 2.079 4.485 3.372l.534.498.268.25.133.125c.173.194.108.131.174.209l.419.537c.14.174.282.441.421.661l.406.693.316.647c.218.432.42.864.593 1.299 1.466 3.471 2.466 7.006 3.399 10.562.922 3.557 1.686 7.143 2.352 10.745 1.307 7.208 2.277 14.476 2.826 21.789.536 7.312.693 14.67.282 22.037a104.402 104.402 0 0 1-1.161 11.037c-.57 3.67-1.375 7.327-2.517 10.919-2.314 7.259-5.955 13.757-9.94 19.983a156.93 156.93 0 0 1-13.445 17.53c-9.763 11.012-20.961 20.689-33.105 28.911-12.15 8.207-25.351 14.892-39.266 19.436-13.88 4.591-28.468 7.127-43.063 7.24-14.597.199-29.14-.844-43.622-2.498-7.236-.87-14.444-1.98-21.624-3.27-7.167-1.354-14.313-2.857-21.394-4.658a269.04 269.04 0 0 1-41.52-14.105l-5.003-2.281-2.499-1.147-2.459-1.234-4.913-2.481-4.814-2.674c-3.242-1.729-6.324-3.737-9.467-5.641-1.583-.935-3.062-2.033-4.599-3.042-1.512-1.046-3.069-2.028-4.545-3.127-11.925-8.621-22.902-18.641-32.36-30.002l-3.384-4.39c-1.107-1.479-2.301-2.894-3.297-4.453-2.049-3.062-4.215-6.114-6.106-9.183l-11.662-18.411c-7.726-12.299-15.572-24.527-23.254-36.865l-11.542-18.504c-3.828-6.186-7.643-12.382-11.317-18.694a177.321 177.321 0 0 1-2.72-4.763l-1.337-2.399-1.267-2.452c-1.684-3.268-3.267-6.637-4.435-10.25l-.437-1.354-.326-1.406c-.107-.487-.214-.898-.319-1.447l-.2-1.348c-.152-.87-.22-1.867-.311-2.82-.058-.961-.1-1.903-.076-2.864.017-1.912.259-3.853.788-5.755.292-.946.616-1.891 1.103-2.792.233-.453.496-.896.808-1.324.145-.216.322-.426.494-.635.199-.22.34-.387.664-.661l.964-.815.851.974a26.272 26.272 0 0 0 2.086 2.113c.737.664 1.509 1.284 2.307 1.781.784.494 1.65.876 2.297.879.641-.02.924-.188 1.441-1.113.538-.896 1.047-1.794 1.772-2.696.652-.938 1.407-1.682 2.118-2.504.771-.743 1.504-1.536 2.312-2.224a56.494 56.494 0 0 1 2.408-2.075c.808-.685 1.637-1.326 2.458-1.985l2.493-1.952c.866-.607 1.633-1.271 2.58-1.833.459-.285.906-.589 1.374-.856l1.44-.738c.992-.431 2.008-.835 3.09-1.03.526-.152 1.083-.15 1.627-.196.545-.074 1.09.021 1.633.055 1.08.112 2.132.423 3.121.715l3.012.89-.129.482-3.056-.727c-1.028-.245-2.017-.477-3.02-.526-.502-.002-1.004-.068-1.499.03-.495.07-.995.089-1.472.259-.974.223-1.9.637-2.805 1.077l-1.323.753c-.428.271-.836.575-1.254.859-.839.538-1.637 1.281-2.457 1.911l-2.366 2.025c-.782.688-1.581 1.361-2.341 2.065a54.866 54.866 0 0 0-2.259 2.124c-.758.703-1.414 1.483-2.12 2.222-.622.79-1.33 1.557-1.836 2.369-.267.419-.568.755-.809 1.237l-.752 1.378-.188.343c-.087.146-.15.295-.267.438-.199.29-.454.564-.749.812-.604.498-1.432.752-2.155.755-1.47-.003-2.572-.569-3.573-1.126-.999-.58-1.883-1.253-2.725-1.962a28.79 28.79 0 0 1-2.395-2.28l1.814.157c-.02.023-.184.194-.281.317-.11.147-.225.286-.327.452-.213.312-.406.66-.575 1.02-.359.71-.6 1.503-.82 2.296a19.349 19.349 0 0 0-.518 5.033c.064 3.415.693 6.957 1.842 10.168 1.17 3.267 2.782 6.457 4.526 9.588l1.304 2.352 1.362 2.334a173.6 173.6 0 0 0 2.775 4.648c3.757 6.175 7.68 12.279 11.619 18.375l11.886 18.257c7.98 12.144 15.82 24.379 23.696 36.599 3.951 6.103 7.828 12.245 11.716 18.384 1.918 3.12 3.965 5.993 5.948 8.974.958 1.509 2.113 2.876 3.181 4.307l3.261 4.248c9.024 11.081 19.561 20.919 31.088 29.447 11.559 8.506 24.167 15.552 37.203 21.656 6.568 2.949 13.213 5.761 20.019 8.161 6.776 2.479 13.661 4.672 20.606 6.671 6.953 1.977 13.983 3.688 21.058 5.212 7.089 1.457 14.218 2.74 21.387 3.784a310.468 310.468 0 0 0 21.605 2.344c7.223.549 14.48.787 21.707.716 14.481-.069 28.864-2.723 42.465-7.553 13.604-4.845 26.352-11.878 38.031-20.274 11.68-8.417 22.282-18.274 31.686-29.107 4.668-5.444 9.065-11.122 12.97-17.104 3.831-5.988 7.423-12.258 9.556-18.862 1.086-3.324 1.879-6.778 2.45-10.281.565-3.505 1.012-7.045 1.252-10.615.518-7.136.485-14.339.077-21.523a214.733 214.733 0 0 0-2.256-21.487 189.285 189.285 0 0 0-1.999-10.608c-.791-3.495-1.667-7.004-2.923-10.275a13.962 13.962 0 0 0-.498-1.197l-.261-.586-.264-.492c-.099-.167-.144-.318-.282-.504l-.4-.552c-.006-.01-.129-.172-.039-.057l-.111-.11-.225-.223-.447-.446c-1.21-1.194-2.648-2.284-4.074-3.355-2.898-2.113-5.944-4.075-9.015-5.991a315.077 315.077 0 0 0-9.341-5.573c-3.141-1.817-6.289-3.63-9.471-5.378l.228-.453z"/><path d="M300.861 706.625s-.146-.262-.518-.726a6.99 6.99 0 0 0-1.939-1.668 5.602 5.602 0 0 0-3.814-.693c-1.528.255-3.235 1.027-4.901 2.323-.425.304-.822.692-1.25 1.046l-.617.535-.652.635c-.908.849-1.753 1.76-2.632 2.702-1.761 1.95-3.602 4.152-5.619 6.506-2.024 2.348-4.165 4.916-6.804 7.372-2.625 2.438-5.754 4.902-9.757 6.371-.976.415-2.051.601-3.116.844-.529.148-1.086.141-1.636.2-.575.038-1.057.101-1.716.112-.516-.02-.939 0-1.558-.061l-.872-.072-.825-.114a24.322 24.322 0 0 1-3.256-.704c-4.272-1.151-8.127-3.574-11.733-4.547-1.796-.479-3.341-.411-4.854.43-.76.403-1.515.984-2.219 1.692-.365.333-.695.734-1.04 1.116-.174.189-.328.41-.494.613l-.542.692-1.078 1.343-.545.671c-.201.228-.435.46-.651.689-.444.456-.877.925-1.335 1.364l-1.466 1.218c-2.029 1.557-4.563 2.673-7.15 2.967-2.586.313-5.082.027-7.495-.313-2.416-.36-4.802-.739-7.208-1.003-4.8-.605-9.717-.283-14.646.269-9.899 1.061-19.864 3.039-29.829 4.909-9.962 1.929-19.907 3.97-29.823 5.506a236.84 236.84 0 0 1-7.453 1.059c-2.469.317-5.084.539-7.487.674-5.003.276-9.807.337-14.549.497-4.73.167-9.354.325-13.849.678-1.128.067-2.239.191-3.348.291-1.11.093-2.208.217-3.297.349-2.188.212-4.327.531-6.441.83a124.35 124.35 0 0 0-12.13 2.586c-.976.231-1.911.558-2.856.827l-1.407.422-.646.196-.701.25-5.484 1.959-10.309 3.604c-3.267 1.159-6.29 2.374-9.177 3.453l-8.076 3.038c-2.505.918-4.771 1.874-6.851 2.647l-13.021 5.03-.211-.453 3.222-1.725c2.102-1.128 5.237-2.66 9.205-4.677 3.953-2.038 8.857-4.322 14.511-6.906l4.373-2.006c1.502-.685 3.043-1.423 4.655-2.051l10.111-4.132 5.406-2.166.69-.276c.339-.131.51-.179.773-.272l1.459-.499c.98-.321 1.956-.701 2.967-.982 4.016-1.25 8.258-2.188 12.633-3.009a129.439 129.439 0 0 1 13.549-1.653c4.632-.349 9.359-.521 14.137-.549 4.766-.053 9.634-.03 14.411-.147 2.487-.073 4.785-.205 7.233-.448 2.426-.226 4.878-.532 7.343-.816l30.004-3.831c5.035-.652 10.07-1.307 15.096-1.903 5.019-.646 10.017-1.291 15.001-1.818 1.245-.133 2.489-.26 3.748-.364 1.254-.111 2.51-.237 3.741-.267l1.877-.076 1.874.029c1.249-.005 2.489.083 3.726.144 2.47.158 4.903.463 7.287.635 2.375.177 4.714.285 6.834-.162 2.125-.424 3.969-1.431 5.549-2.83l1.144-1.107c.349-.395.671-.808 1.008-1.204.166-.203.334-.388.499-.604l.492-.711.988-1.411.474-.688c.179-.251.338-.509.533-.753.387-.489.751-.987 1.192-1.452.838-.942 1.809-1.847 2.993-2.555a9.897 9.897 0 0 1 3.956-1.372c1.402-.168 2.765-.02 3.991.254 2.459.566 4.477 1.563 6.408 2.385 1.925.844 3.75 1.596 5.553 2.145.901.275 1.798.49 2.689.634l.667.105.623.063c.374.058.947.055 1.42.08.33-.007.828-.053 1.232-.073.423-.04.854-.008 1.266-.127.827-.187 1.663-.289 2.448-.62 3.204-1.054 6.059-3.035 8.57-5.213 2.507-2.198 4.781-4.524 6.91-6.751 2.125-2.236 4.156-4.334 6.144-6.201 1.023-.94 2-1.835 2.948-2.592l.7-.58c.292-.226.521-.373.778-.56.508-.345.971-.714 1.479-1.009 1.973-1.236 4.051-2.016 5.958-2.085 1.916-.094 3.519.581 4.507 1.377a7.771 7.771 0 0 1 1.892 2.138c.328.547.451.863.451.863l-.445.22zm406.882 44.156c4.819 1.514 9.629 3.035 14.42 4.611l14.381 4.674c4.775 1.608 9.581 3.097 14.363 4.648l7.188 2.203c2.396.755 4.779 1.263 7.157 1.937 1.355.378 2.442.595 3.75 1.027 1.274.403 2.546.812 3.732 1.264 2.428.867 4.785 1.832 7.134 2.805a580.969 580.969 0 0 1 13.843 6.158c4.577 2.062 9.131 4.149 13.753 5.898 2.306.888 4.639 1.65 6.961 2.164l1.732.312a29.05 29.05 0 0 0 1.81.146c1.176.07 2.446.073 3.681.075 4.985-.055 10.032-.293 15.06-.624 5.034-.296 10.068-.683 15.117-.949 5.049-.263 10.106-.508 15.214-.25 2.553.144 5.128.373 7.713 1.297l.968.44c.318.172.631.403.943.61l1.477 1.211c.975.821 1.943 1.65 2.893 2.496 3.799 3.386 7.415 7.007 10.725 10.923 3.305 3.915 6.342 8.104 8.877 12.626.601 1.148 1.218 2.29 1.793 3.455.528 1.188 1.114 2.351 1.593 3.563.987 2.468 1.734 4.839 2.748 6.844l.394.734.415.665.422.56c.133.117.276.318.369.358.11.105.162.101.141.1-.025-.026-.173-.033-.271-.026-.224.062-.024.018.201-.284.479-.578.977-1.625 1.362-2.663a26.76 26.76 0 0 0 .967-3.29l1.918-8.602 2.717 8.583c.034.108.156.475.266.74.102.283.256.586.38.878.288.589.579 1.185.933 1.764.664 1.172 1.462 2.299 2.294 3.399 1.688 2.194 3.649 4.214 5.713 6.131 2.13 1.858 4.324 3.66 6.689 5.262l1.746 1.235 1.81 1.155 1.812 1.151c.613.371 1.246.715 1.867 1.074l7.673 4.426 1.901 1.128.951.564.944.643 3.771 2.58 1.883 1.292 1.782 1.387 3.56 2.779a457.852 457.852 0 0 1 6.729 5.812l1.652 1.448 1.672 1.36 1.673 1.358.838.679.878.605 3.507 2.44c1.223.731 2.478 1.417 3.717 2.131l1.865 1.063 1.994 1.107c1.282.669 2.592 1.55 3.887 2.37 2.552 1.683 4.916 3.488 7.265 5.349l3.442 2.855 3.336 2.965c2.179 2.021 4.349 4.044 6.428 6.157 4.156 4.228 8.224 8.522 12.011 13.074l-.369.338c-2.118-2.046-4.287-4.045-6.45-6.039a253.585 253.585 0 0 0-6.617-5.836l-3.366-2.839-3.409-2.776-3.468-2.688-3.52-2.599c-2.372-1.675-4.805-3.308-7.256-4.746-1.23-.702-2.395-1.433-3.759-2.071l-3.944-1.993c-1.349-.697-2.715-1.37-4.053-2.096l-3.85-2.471-.961-.622-.905-.684-1.807-1.371-1.802-1.375-1.721-1.413-6.814-5.569-3.46-2.604-1.729-1.301-1.786-1.178-3.567-2.358-.893-.589-.961-.548-1.921-1.096-7.641-4.433c-.654-.38-1.315-.743-1.963-1.137l-1.918-1.224-1.914-1.231-1.861-1.322c-2.483-1.759-4.817-3.753-7.083-5.822-2.212-2.141-4.325-4.407-6.183-6.931-.92-1.27-1.801-2.574-2.564-3.984-.397-.689-.744-1.426-1.085-2.169-.157-.389-.329-.75-.471-1.162-.153-.424-.276-.753-.43-1.358l4.635-.019a30.992 30.992 0 0 1-1.246 3.937c-.54 1.296-1.085 2.59-2.223 3.958a5.861 5.861 0 0 1-1.095 1.017 3.91 3.91 0 0 1-.784.456c-.15.068-.302.132-.455.19a7.452 7.452 0 0 1-.532.123c-.714.149-1.51.039-2.125-.194a4.816 4.816 0 0 1-1.459-.882c-.422-.33-.651-.648-.957-.982a18.843 18.843 0 0 1-.688-.971l-.558-.957-.471-.946c-.284-.634-.563-1.247-.801-1.892a33.471 33.471 0 0 1-.668-1.863l-1.214-3.512c-.396-1.151-.899-2.266-1.344-3.403-.491-1.119-1.027-2.221-1.545-3.332-2.2-4.384-4.844-8.578-7.835-12.535-2.972-3.976-6.342-7.666-9.899-11.171a143.34 143.34 0 0 0-2.712-2.583l-1.389-1.257c-.211-.142-.396-.306-.622-.444l-.736-.379c-2.153-.843-4.655-1.176-7.118-1.372-4.964-.354-10.004-.173-15.018.119-5.02.312-10.036.765-15.052 1.293-5.022.477-10.024 1.137-15.117 1.468-1.285.075-2.536.152-3.881.154a31.62 31.62 0 0 1-1.967-.039l-2.01-.226c-2.634-.406-5.157-1.056-7.608-1.831-4.91-1.55-9.635-3.437-14.3-5.401-4.674-1.942-9.253-4.048-13.861-5.994-2.294-.992-4.592-1.972-6.899-2.834-1.164-.464-2.288-.84-3.411-1.218-1.077-.391-2.461-.704-3.525-1.028l-3.716-1.08c-1.238-.363-2.48-.718-3.668-1.146l-7.2-2.464c-4.748-1.743-9.487-3.508-14.189-5.349-9.397-3.706-18.733-7.548-27.941-11.712l.175-.462zM519.265 502.514l1.842-.354c1.202-.216 2.965-.521 5.212-.851 1.123-.179 2.368-.34 3.723-.519a144.17 144.17 0 0 1 4.389-.541c3.133-.38 6.673-.699 10.535-1.047 3.866-.263 8.049-.662 12.487-.765l3.375-.062 3.479.018 7.135.219c4.873.178 9.868.121 15.057.468.652.053 1.309.133 1.997.289.731.151 1.284.41 1.902.596 1.217.406 2.459.847 3.664 1.276 2.438.828 4.893 1.658 7.343 2.345.615.187 1.22.341 1.816.479.292.064.615.162.88.2l.756.102.093.015.047.007c-.241-.017-.032-.007-.07-.012l.242-.02.483-.038c.316-.031.662-.038.947-.095l1.769-.27 3.816-.519c1.29-.14 2.571-.29 3.86-.399 5.151-.438 10.323-.606 15.475.219l.961.135.24.034.12.017c.061.013-.052-.017.151.03l.055.014.438.104 1.741.426 1.722.432 1.768.565c1.155.396 2.36.736 3.425 1.18l3.218 1.277a105.052 105.052 0 0 1 11.401 5.787c.855.537 1.679 1.01 2.494 1.586l1.201.838.147.104.073.052.037.025c-.159-.103-.023-.015-.05-.032l.28.186.557.367c1.482.948 2.849 1.959 4.165 2.771 2.646 1.601 4.89 3.096 6.833 4.281 1.924 1.192 3.417 2.173 4.442 2.827l1.562 1.024-.219.449-1.766-.621a175.796 175.796 0 0 1-4.931-1.89 77.562 77.562 0 0 1-3.498-1.452 199.082 199.082 0 0 1-4.121-1.812c-1.46-.673-2.935-1.44-4.51-2.258l-.593-.309-.299-.156-.157-.095-.069-.038-.14-.076-1.127-.622c-.744-.428-1.623-.804-2.446-1.231-3.39-1.659-7.202-3.254-11.238-4.834-2.035-.729-4.129-1.539-6.205-2.177l-1.572-.527-1.715-.462a829.47 829.47 0 0 1-1.728-.478l-.434-.123-.323-.058-.829-.147c-4.391-.893-9.311-1.047-14.297-.917l-7.634.238-2.081.031c-.357.014-.658-.021-.985-.032l-.483-.025-.241-.012-.191-.012-.071-.018-.144-.036-1.138-.304c-.363-.108-.646-.239-.973-.358a28.774 28.774 0 0 1-1.854-.757c-2.418-1.043-4.757-2.144-7.109-3.189a192.617 192.617 0 0 0-3.523-1.487c-.596-.219-1.215-.489-1.736-.601a12.461 12.461 0 0 0-1.774-.292c-2.46-.252-4.988-.188-7.457-.022-2.477.138-4.922.414-7.329.695-2.4.29-4.787.603-7.117.843l-3.424.392-3.362.313c-4.425.393-8.623.461-12.494.629-3.874.084-7.426.16-10.578.131-1.575.009-3.051-.016-4.416-.05-1.364-.026-2.618-.048-3.751-.102a156.102 156.102 0 0 1-5.265-.266l-1.865-.146-.023-.5z"/></svg>